<svg width="76" height="76" viewBox="0 0 76 76" fill="none" xmlns="http://www.w3.org/2000/svg">
<mask id="path-1-inside-1_136_529" fill="white">
<path d="M75.119 33.8994C75.1295 31.2392 74.4413 28.6236 73.1243 26.3172C71.8072 24.0108 69.908 22.0956 67.619 20.7655C67.6754 20.1126 67.6754 19.4559 67.619 18.803C67.619 15.8001 66.4337 12.9203 64.3239 10.7969C62.2141 8.67357 59.3526 7.48068 56.369 7.48068H55.694C55.0695 5.73823 54.0298 4.17658 52.666 2.93269C51.3022 1.6888 49.656 0.800655 47.8718 0.34614C46.0875 -0.108375 44.2197 -0.115378 42.4322 0.325747C40.6446 0.766871 38.9919 1.64265 37.619 2.87628C36.246 1.64265 34.5933 0.766871 32.8057 0.325747C31.0182 -0.115378 29.1504 -0.108375 27.3661 0.34614C25.5819 0.800655 23.9357 1.6888 22.5719 2.93269C21.2082 4.17658 20.1684 5.73823 19.544 7.48068H18.869C15.8853 7.48068 13.0238 8.67357 10.914 10.7969C8.80422 12.9203 7.61896 15.8001 7.61896 18.803C7.56252 19.4559 7.56252 20.1126 7.61896 20.7655C5.49069 21.9762 3.6887 23.6921 2.36986 25.7638C1.05102 27.8355 0.255303 30.2003 0.0519736 32.6522C-0.151356 35.1041 0.243866 37.5689 1.20324 39.832C2.1626 42.095 3.65704 44.0878 5.55646 45.6368C4.32748 47.9438 3.71564 50.5328 3.781 53.1496C3.84637 55.7664 4.58669 58.3211 5.92929 60.563C7.2719 62.8049 9.17066 64.657 11.4392 65.9374C13.7077 67.2177 16.2681 67.8825 18.869 67.8663H19.544C20.1684 69.6087 21.2082 71.1704 22.5719 72.4143C23.9357 73.6582 25.5819 74.5463 27.3661 75.0008C29.1504 75.4553 31.0182 75.4623 32.8057 75.0212C34.5933 74.5801 36.246 73.7043 37.619 72.4707C38.9919 73.7043 40.6446 74.5801 42.4322 75.0212C44.2197 75.4623 46.0875 75.4553 47.8718 75.0008C49.656 74.5463 51.3022 73.6582 52.666 72.4143C54.0298 71.1704 55.0695 69.6087 55.694 67.8663H56.369C58.9539 67.8498 61.4908 67.1613 63.7336 65.8676C65.9763 64.5738 67.8487 62.7186 69.1693 60.4821C70.4898 58.2455 71.2136 55.7034 71.2705 53.1024C71.3274 50.5014 70.7154 47.9297 69.494 45.6368C71.2431 44.2274 72.6563 42.4416 73.6297 40.4104C74.6031 38.3793 75.112 36.1544 75.119 33.8994ZM33.869 24.6528C33.0522 24.1827 32.1995 23.7788 31.319 23.4451C30.3741 23.1248 29.3416 23.1954 28.4484 23.6413C27.5553 24.0872 26.8747 24.8719 26.5565 25.8228C26.2382 26.7737 26.3083 27.8129 26.7514 28.7118C27.1944 29.6107 27.9741 30.2956 28.919 30.6159C30.3625 31.1411 31.6111 32.0995 32.4963 33.3616C33.3815 34.6236 33.8606 36.1287 33.869 37.6735V43.5233C33.0522 43.0532 32.1995 42.6493 31.319 42.3156C30.3741 41.9953 29.3416 42.0659 28.4484 42.5118C27.5553 42.9577 26.8747 43.7424 26.5565 44.6933C26.2382 45.6442 26.3083 46.6834 26.7514 47.5823C27.1944 48.4812 27.9741 49.1661 28.919 49.4864C30.3625 50.0116 31.6111 50.97 32.4963 52.2321C33.3815 53.4941 33.8606 54.9992 33.869 56.544V64.0922C33.869 65.0931 33.4739 66.0531 32.7706 66.7609C32.0674 67.4687 31.1135 67.8663 30.119 67.8663C29.3935 67.8615 28.6849 67.6451 28.0792 67.2431C27.4735 66.8412 26.9967 66.271 26.7065 65.6018C27.3352 65.2305 27.9368 64.8143 28.5065 64.3564C28.8857 64.0392 29.1991 63.6499 29.4288 63.2108C29.6585 62.7717 29.8 62.2914 29.8453 61.7972C29.8906 61.3031 29.8387 60.8048 29.6926 60.3309C29.5465 59.8569 29.3091 59.4165 28.994 59.0349C28.6788 58.6533 28.292 58.3378 27.8557 58.1067C27.4194 57.8755 26.9422 57.733 26.4512 57.6875C25.9602 57.6419 25.4651 57.6941 24.9942 57.8411C24.5232 57.9881 24.0857 58.2271 23.7065 58.5443C22.3524 59.6915 20.6389 60.3198 18.869 60.3181C16.8798 60.3181 14.9722 59.5228 13.5657 58.1073C12.1591 56.6917 11.369 54.7718 11.369 52.7699C11.3869 51.3493 11.8028 49.9626 12.569 48.7693C13.4105 48.9213 14.2639 48.997 15.119 48.9958C16.1135 48.9958 17.0673 48.5982 17.7706 47.8904C18.4739 47.1826 18.869 46.2226 18.869 45.2217C18.869 44.2207 18.4739 43.2608 17.7706 42.553C17.0673 41.8452 16.1135 41.4476 15.119 41.4476C14.2332 41.4527 13.3547 41.2861 12.5315 40.9569C11.1828 40.4674 10.0017 39.599 9.1283 38.4547C8.25487 37.3104 7.72565 35.9382 7.60331 34.5005C7.48098 33.0628 7.77067 31.6199 8.43807 30.3428C9.10546 29.0657 10.1226 28.0079 11.369 27.2947C11.9018 27.7881 12.4793 28.2304 13.094 28.6156C13.9592 29.1161 14.9866 29.2502 15.9501 28.9883C16.9135 28.7264 17.7342 28.0901 18.2315 27.2192C18.7287 26.3484 18.8619 25.3144 18.6017 24.3448C18.3415 23.3751 17.7092 22.5492 16.844 22.0487C16.3161 21.7556 15.8758 21.3256 15.569 20.8033C15.2223 20.1973 15.0654 19.5001 15.119 18.803C15.119 17.802 15.514 16.8421 16.2173 16.1343C16.9206 15.4265 17.8744 15.0289 18.869 15.0289C19.1302 14.9922 19.3952 14.9922 19.6565 15.0289C19.855 15.6353 20.093 16.2278 20.369 16.8027C20.6139 17.2352 20.9415 17.6146 21.3328 17.9191C21.7241 18.2236 22.1714 18.4472 22.6489 18.577C23.1265 18.7068 23.6248 18.7402 24.1152 18.6754C24.6056 18.6105 25.0785 18.4487 25.5065 18.1991C26.3379 17.6957 26.943 16.8875 27.1947 15.9445C27.4465 15.0014 27.3252 13.9968 26.8565 13.1418C26.5418 12.5629 26.3743 11.9146 26.369 11.2548C26.369 10.2538 26.764 9.29387 27.4673 8.58609C28.1706 7.87831 29.1244 7.48068 30.119 7.48068C31.1135 7.48068 32.0674 7.87831 32.7706 8.58609C33.4739 9.29387 33.869 10.2538 33.869 11.2548V24.6528ZM62.7065 40.9569C61.8833 41.2861 61.0048 41.4527 60.119 41.4476C59.1244 41.4476 58.1706 41.8452 57.4673 42.553C56.764 43.2608 56.369 44.2207 56.369 45.2217C56.369 46.2226 56.764 47.1826 57.4673 47.8904C58.1706 48.5982 59.1244 48.9958 60.119 48.9958C60.974 48.997 61.8274 48.9213 62.669 48.7693C63.4351 49.9626 63.851 51.3493 63.869 52.7699C63.869 54.7718 63.0788 56.6917 61.6723 58.1073C60.2657 59.5228 58.3581 60.3181 56.369 60.3181C54.599 60.3198 52.8855 59.6915 51.5315 58.5443C50.7657 57.9036 49.7783 57.5954 48.7868 57.6875C47.7952 57.7795 46.8805 58.2642 46.244 59.0349C45.6074 59.8056 45.3012 60.7993 45.3926 61.7972C45.4841 62.7952 45.9657 63.7158 46.7315 64.3564C47.3011 64.8143 47.9027 65.2305 48.5315 65.6018C48.2413 66.271 47.7644 66.8412 47.1587 67.2431C46.553 67.6451 45.8445 67.8615 45.119 67.8663C44.1244 67.8663 43.1706 67.4687 42.4673 66.7609C41.7641 66.0531 41.369 65.0931 41.369 64.0922V56.544C41.3773 54.9992 41.8564 53.4941 42.7416 52.2321C43.6268 50.97 44.8754 50.0116 46.319 49.4864C47.2638 49.1661 48.0435 48.4812 48.4866 47.5823C48.9296 46.6834 48.9997 45.6442 48.6815 44.6933C48.3632 43.7424 47.6826 42.9577 46.7895 42.5118C45.8964 42.0659 44.8638 41.9953 43.919 42.3156C43.0384 42.6493 42.1857 43.0532 41.369 43.5233V37.6735C41.3773 36.1287 41.8564 34.6236 42.7416 33.3616C43.6268 32.0995 44.8754 31.1411 46.319 30.6159C47.2638 30.2956 48.0435 29.6107 48.4866 28.7118C48.9296 27.8129 48.9997 26.7737 48.6815 25.8228C48.3632 24.8719 47.6826 24.0872 46.7895 23.6413C45.8964 23.1954 44.8638 23.1248 43.919 23.4451C43.0384 23.7788 42.1857 24.1827 41.369 24.6528V11.2548C41.369 10.2538 41.7641 9.29387 42.4673 8.58609C43.1706 7.87831 44.1244 7.48068 45.119 7.48068C46.1135 7.48068 47.0674 7.87831 47.7706 8.58609C48.4739 9.29387 48.869 10.2538 48.869 11.2548C48.8636 11.9146 48.6961 12.5629 48.3815 13.1418C48.132 13.5703 47.969 14.0442 47.9018 14.5362C47.8346 15.0282 47.8646 15.5288 47.99 16.0091C48.1154 16.4895 48.3338 16.9402 48.6326 17.3354C48.9315 17.7307 49.3049 18.0626 49.7315 18.3123C50.1595 18.5619 50.6323 18.7237 51.1227 18.7886C51.6131 18.8535 52.1115 18.82 52.589 18.6902C53.0665 18.5604 53.5138 18.3368 53.9051 18.0323C54.2964 17.7278 54.624 17.3484 54.869 16.9159C55.1496 16.3043 55.3877 15.6738 55.5815 15.0289C55.8427 14.9922 56.1077 14.9922 56.369 15.0289C57.3635 15.0289 58.3174 15.4265 59.0206 16.1343C59.7239 16.8421 60.119 17.802 60.119 18.803C60.1132 19.5428 59.8915 20.2647 59.4815 20.8787C59.1748 21.3685 58.7488 21.7712 58.244 22.0487C57.3787 22.5492 56.7464 23.3751 56.4862 24.3448C56.226 25.3144 56.3592 26.3484 56.8565 27.2192C57.3537 28.0901 58.1744 28.7264 59.1379 28.9883C60.1013 29.2502 61.1287 29.1161 61.994 28.6156C62.6673 28.2492 63.2964 27.806 63.869 27.2947C65.1196 27.9953 66.1449 29.0415 66.8238 30.3096C67.5028 31.5777 67.807 33.0149 67.7005 34.4514C67.594 35.888 67.0814 37.2638 66.223 38.4166C65.3647 39.5693 64.1965 40.4508 62.8565 40.9569H62.7065Z"/>
</mask>
<path d="M75.119 33.8994C75.1295 31.2392 74.4413 28.6236 73.1243 26.3172C71.8072 24.0108 69.908 22.0956 67.619 20.7655C67.6754 20.1126 67.6754 19.4559 67.619 18.803C67.619 15.8001 66.4337 12.9203 64.3239 10.7969C62.2141 8.67357 59.3526 7.48068 56.369 7.48068H55.694C55.0695 5.73823 54.0298 4.17658 52.666 2.93269C51.3022 1.6888 49.656 0.800655 47.8718 0.34614C46.0875 -0.108375 44.2197 -0.115378 42.4322 0.325747C40.6446 0.766871 38.9919 1.64265 37.619 2.87628C36.246 1.64265 34.5933 0.766871 32.8057 0.325747C31.0182 -0.115378 29.1504 -0.108375 27.3661 0.34614C25.5819 0.800655 23.9357 1.6888 22.5719 2.93269C21.2082 4.17658 20.1684 5.73823 19.544 7.48068H18.869C15.8853 7.48068 13.0238 8.67357 10.914 10.7969C8.80422 12.9203 7.61896 15.8001 7.61896 18.803C7.56252 19.4559 7.56252 20.1126 7.61896 20.7655C5.49069 21.9762 3.6887 23.6921 2.36986 25.7638C1.05102 27.8355 0.255303 30.2003 0.0519736 32.6522C-0.151356 35.1041 0.243866 37.5689 1.20324 39.832C2.1626 42.095 3.65704 44.0878 5.55646 45.6368C4.32748 47.9438 3.71564 50.5328 3.781 53.1496C3.84637 55.7664 4.58669 58.3211 5.92929 60.563C7.2719 62.8049 9.17066 64.657 11.4392 65.9374C13.7077 67.2177 16.2681 67.8825 18.869 67.8663H19.544C20.1684 69.6087 21.2082 71.1704 22.5719 72.4143C23.9357 73.6582 25.5819 74.5463 27.3661 75.0008C29.1504 75.4553 31.0182 75.4623 32.8057 75.0212C34.5933 74.5801 36.246 73.7043 37.619 72.4707C38.9919 73.7043 40.6446 74.5801 42.4322 75.0212C44.2197 75.4623 46.0875 75.4553 47.8718 75.0008C49.656 74.5463 51.3022 73.6582 52.666 72.4143C54.0298 71.1704 55.0695 69.6087 55.694 67.8663H56.369C58.9539 67.8498 61.4908 67.1613 63.7336 65.8676C65.9763 64.5738 67.8487 62.7186 69.1693 60.4821C70.4898 58.2455 71.2136 55.7034 71.2705 53.1024C71.3274 50.5014 70.7154 47.9297 69.494 45.6368C71.2431 44.2274 72.6563 42.4416 73.6297 40.4104C74.6031 38.3793 75.112 36.1544 75.119 33.8994ZM33.869 24.6528C33.0522 24.1827 32.1995 23.7788 31.319 23.4451C30.3741 23.1248 29.3416 23.1954 28.4484 23.6413C27.5553 24.0872 26.8747 24.8719 26.5565 25.8228C26.2382 26.7737 26.3083 27.8129 26.7514 28.7118C27.1944 29.6107 27.9741 30.2956 28.919 30.6159C30.3625 31.1411 31.6111 32.0995 32.4963 33.3616C33.3815 34.6236 33.8606 36.1287 33.869 37.6735V43.5233C33.0522 43.0532 32.1995 42.6493 31.319 42.3156C30.3741 41.9953 29.3416 42.0659 28.4484 42.5118C27.5553 42.9577 26.8747 43.7424 26.5565 44.6933C26.2382 45.6442 26.3083 46.6834 26.7514 47.5823C27.1944 48.4812 27.9741 49.1661 28.919 49.4864C30.3625 50.0116 31.6111 50.97 32.4963 52.2321C33.3815 53.4941 33.8606 54.9992 33.869 56.544V64.0922C33.869 65.0931 33.4739 66.0531 32.7706 66.7609C32.0674 67.4687 31.1135 67.8663 30.119 67.8663C29.3935 67.8615 28.6849 67.6451 28.0792 67.2431C27.4735 66.8412 26.9967 66.271 26.7065 65.6018C27.3352 65.2305 27.9368 64.8143 28.5065 64.3564C28.8857 64.0392 29.1991 63.6499 29.4288 63.2108C29.6585 62.7717 29.8 62.2914 29.8453 61.7972C29.8906 61.3031 29.8387 60.8048 29.6926 60.3309C29.5465 59.8569 29.3091 59.4165 28.994 59.0349C28.6788 58.6533 28.292 58.3378 27.8557 58.1067C27.4194 57.8755 26.9422 57.733 26.4512 57.6875C25.9602 57.6419 25.4651 57.6941 24.9942 57.8411C24.5232 57.9881 24.0857 58.2271 23.7065 58.5443C22.3524 59.6915 20.6389 60.3198 18.869 60.3181C16.8798 60.3181 14.9722 59.5228 13.5657 58.1073C12.1591 56.6917 11.369 54.7718 11.369 52.7699C11.3869 51.3493 11.8028 49.9626 12.569 48.7693C13.4105 48.9213 14.2639 48.997 15.119 48.9958C16.1135 48.9958 17.0673 48.5982 17.7706 47.8904C18.4739 47.1826 18.869 46.2226 18.869 45.2217C18.869 44.2207 18.4739 43.2608 17.7706 42.553C17.0673 41.8452 16.1135 41.4476 15.119 41.4476C14.2332 41.4527 13.3547 41.2861 12.5315 40.9569C11.1828 40.4674 10.0017 39.599 9.1283 38.4547C8.25487 37.3104 7.72565 35.9382 7.60331 34.5005C7.48098 33.0628 7.77067 31.6199 8.43807 30.3428C9.10546 29.0657 10.1226 28.0079 11.369 27.2947C11.9018 27.7881 12.4793 28.2304 13.094 28.6156C13.9592 29.1161 14.9866 29.2502 15.9501 28.9883C16.9135 28.7264 17.7342 28.0901 18.2315 27.2192C18.7287 26.3484 18.8619 25.3144 18.6017 24.3448C18.3415 23.3751 17.7092 22.5492 16.844 22.0487C16.3161 21.7556 15.8758 21.3256 15.569 20.8033C15.2223 20.1973 15.0654 19.5001 15.119 18.803C15.119 17.802 15.514 16.8421 16.2173 16.1343C16.9206 15.4265 17.8744 15.0289 18.869 15.0289C19.1302 14.9922 19.3952 14.9922 19.6565 15.0289C19.855 15.6353 20.093 16.2278 20.369 16.8027C20.6139 17.2352 20.9415 17.6146 21.3328 17.9191C21.7241 18.2236 22.1714 18.4472 22.6489 18.577C23.1265 18.7068 23.6248 18.7402 24.1152 18.6754C24.6056 18.6105 25.0785 18.4487 25.5065 18.1991C26.3379 17.6957 26.943 16.8875 27.1947 15.9445C27.4465 15.0014 27.3252 13.9968 26.8565 13.1418C26.5418 12.5629 26.3743 11.9146 26.369 11.2548C26.369 10.2538 26.764 9.29387 27.4673 8.58609C28.1706 7.87831 29.1244 7.48068 30.119 7.48068C31.1135 7.48068 32.0674 7.87831 32.7706 8.58609C33.4739 9.29387 33.869 10.2538 33.869 11.2548V24.6528ZM62.7065 40.9569C61.8833 41.2861 61.0048 41.4527 60.119 41.4476C59.1244 41.4476 58.1706 41.8452 57.4673 42.553C56.764 43.2608 56.369 44.2207 56.369 45.2217C56.369 46.2226 56.764 47.1826 57.4673 47.8904C58.1706 48.5982 59.1244 48.9958 60.119 48.9958C60.974 48.997 61.8274 48.9213 62.669 48.7693C63.4351 49.9626 63.851 51.3493 63.869 52.7699C63.869 54.7718 63.0788 56.6917 61.6723 58.1073C60.2657 59.5228 58.3581 60.3181 56.369 60.3181C54.599 60.3198 52.8855 59.6915 51.5315 58.5443C50.7657 57.9036 49.7783 57.5954 48.7868 57.6875C47.7952 57.7795 46.8805 58.2642 46.244 59.0349C45.6074 59.8056 45.3012 60.7993 45.3926 61.7972C45.4841 62.7952 45.9657 63.7158 46.7315 64.3564C47.3011 64.8143 47.9027 65.2305 48.5315 65.6018C48.2413 66.271 47.7644 66.8412 47.1587 67.2431C46.553 67.6451 45.8445 67.8615 45.119 67.8663C44.1244 67.8663 43.1706 67.4687 42.4673 66.7609C41.7641 66.0531 41.369 65.0931 41.369 64.0922V56.544C41.3773 54.9992 41.8564 53.4941 42.7416 52.2321C43.6268 50.97 44.8754 50.0116 46.319 49.4864C47.2638 49.1661 48.0435 48.4812 48.4866 47.5823C48.9296 46.6834 48.9997 45.6442 48.6815 44.6933C48.3632 43.7424 47.6826 42.9577 46.7895 42.5118C45.8964 42.0659 44.8638 41.9953 43.919 42.3156C43.0384 42.6493 42.1857 43.0532 41.369 43.5233V37.6735C41.3773 36.1287 41.8564 34.6236 42.7416 33.3616C43.6268 32.0995 44.8754 31.1411 46.319 30.6159C47.2638 30.2956 48.0435 29.6107 48.4866 28.7118C48.9296 27.8129 48.9997 26.7737 48.6815 25.8228C48.3632 24.8719 47.6826 24.0872 46.7895 23.6413C45.8964 23.1954 44.8638 23.1248 43.919 23.4451C43.0384 23.7788 42.1857 24.1827 41.369 24.6528V11.2548C41.369 10.2538 41.7641 9.29387 42.4673 8.58609C43.1706 7.87831 44.1244 7.48068 45.119 7.48068C46.1135 7.48068 47.0674 7.87831 47.7706 8.58609C48.4739 9.29387 48.869 10.2538 48.869 11.2548C48.8636 11.9146 48.6961 12.5629 48.3815 13.1418C48.132 13.5703 47.969 14.0442 47.9018 14.5362C47.8346 15.0282 47.8646 15.5288 47.99 16.0091C48.1154 16.4895 48.3338 16.9402 48.6326 17.3354C48.9315 17.7307 49.3049 18.0626 49.7315 18.3123C50.1595 18.5619 50.6323 18.7237 51.1227 18.7886C51.6131 18.8535 52.1115 18.82 52.589 18.6902C53.0665 18.5604 53.5138 18.3368 53.9051 18.0323C54.2964 17.7278 54.624 17.3484 54.869 16.9159C55.1496 16.3043 55.3877 15.6738 55.5815 15.0289C55.8427 14.9922 56.1077 14.9922 56.369 15.0289C57.3635 15.0289 58.3174 15.4265 59.0206 16.1343C59.7239 16.8421 60.119 17.802 60.119 18.803C60.1132 19.5428 59.8915 20.2647 59.4815 20.8787C59.1748 21.3685 58.7488 21.7712 58.244 22.0487C57.3787 22.5492 56.7464 23.3751 56.4862 24.3448C56.226 25.3144 56.3592 26.3484 56.8565 27.2192C57.3537 28.0901 58.1744 28.7264 59.1379 28.9883C60.1013 29.2502 61.1287 29.1161 61.994 28.6156C62.6673 28.2492 63.2964 27.806 63.869 27.2947C65.1196 27.9953 66.1449 29.0415 66.8238 30.3096C67.5028 31.5777 67.807 33.0149 67.7005 34.4514C67.594 35.888 67.0814 37.2638 66.223 38.4166C65.3647 39.5693 64.1965 40.4508 62.8565 40.9569H62.7065Z" fill="#E8EDFC" stroke="#116FFF" stroke-width="4" mask="url(#path-1-inside-1_136_529)"/>
</svg>
