<svg width="87" height="87" viewBox="0 0 87 87" fill="none" xmlns="http://www.w3.org/2000/svg">
<path d="M1.01254 86.9174C0.45285 86.9174 3.70966e-05 86.4618 3.70966e-05 85.8988V77.4108C3.70966e-05 76.8477 0.45285 76.3922 1.01254 76.3922H5.62504V68.9228C5.62504 68.3597 6.07785 67.9042 6.63754 67.9042H79.7625C80.3222 67.9042 80.775 68.3597 80.775 68.9228V76.3922H85.3875C85.9472 76.3922 86.4 76.8477 86.4 77.4108V85.8988C86.4 86.4618 85.9472 86.9174 85.3875 86.9174H1.01254ZM84.375 84.8802V78.4293H2.02504V84.8802H84.375ZM78.75 76.3922V69.9413H7.65004V76.3922H78.75ZM74.1375 61.4533H62.8875C62.3279 61.4533 61.875 60.9978 61.875 60.4347V43.4587C61.875 42.8956 62.3279 42.4401 62.8875 42.4401H74.1375C74.6972 42.4401 75.15 42.8956 75.15 43.4587V60.4347C75.15 60.9978 74.6972 61.4533 74.1375 61.4533ZM63.9 59.4162H73.1222V44.4772H63.9V59.4162ZM37.575 61.4533C37.0154 61.4533 36.5625 60.9978 36.5625 60.4347V43.4587C36.5625 42.8956 37.0154 42.4401 37.575 42.4401H48.825C49.3847 42.4401 49.8375 42.8956 49.8375 43.4587V60.4347C49.8375 60.9978 49.3847 61.4533 48.825 61.4533H37.575ZM47.8125 59.4162V44.4772H38.5875V59.4162H47.8125ZM23.5125 61.4533H12.2625C11.7028 61.4533 11.25 60.9978 11.25 60.4347V43.4587C11.25 42.8956 11.7028 42.4401 12.2625 42.4401H23.5125C24.0722 42.4401 24.525 42.8956 24.525 43.4587V60.4347C24.525 60.9978 24.0722 61.4533 23.5125 61.4533ZM13.275 59.4162H22.5V44.4772H13.275V59.4162ZM79.7625 35.9892H6.63754V33.9521H79.7625V35.9892ZM85.3875 27.5012H1.01254C0.556912 27.5012 0.157537 27.1956 0.0365996 26.7542C-0.0843379 26.3129 0.101287 25.8432 0.492225 25.6084L42.6797 0.144296C42.9975 -0.0480988 43.4025 -0.0480988 43.7203 0.144296L85.9079 25.6084C86.2988 25.8432 86.4816 26.3129 86.3607 26.7542C86.2425 27.1956 85.8432 27.5012 85.3875 27.5012ZM4.66879 25.4641H81.7313L43.2 2.20689L4.66879 25.4641ZM43.2 20.4278C39.541 20.4278 36.5625 17.4316 36.5625 13.7506C36.5625 10.0696 39.541 7.07335 43.2 7.07335C46.8619 7.07335 49.8375 10.0696 49.8375 13.7506C49.8375 17.4316 46.8619 20.4278 43.2 20.4278ZM43.2 9.11048C40.6575 9.11048 38.5875 11.1929 38.5875 13.7506C38.5875 16.3083 40.6575 18.3907 43.2 18.3907C45.7425 18.3907 47.8125 16.3083 47.8125 13.7506C47.8125 11.1929 45.7425 9.11048 43.2 9.11048Z" fill="#116FFF"/>
<path d="M1.01254 86.9174C0.45285 86.9174 3.70966e-05 86.4618 3.70966e-05 85.8988V77.4108C3.70966e-05 76.8477 0.45285 76.3922 1.01254 76.3922H5.62504V68.9228C5.62504 68.3597 6.07785 67.9042 6.63754 67.9042H79.7625C80.3222 67.9042 80.775 68.3597 80.775 68.9228V76.3922H85.3875C85.9472 76.3922 86.4 76.8477 86.4 77.4108V85.8988C86.4 86.4618 85.9472 86.9174 85.3875 86.9174H1.01254ZM84.375 84.8802V78.4293H2.02504V84.8802H84.375ZM78.75 76.3922V69.9413H7.65004V76.3922H78.75ZM74.1375 61.4533H62.8875C62.3279 61.4533 61.875 60.9978 61.875 60.4347V43.4587C61.875 42.8956 62.3279 42.4401 62.8875 42.4401H74.1375C74.6972 42.4401 75.15 42.8956 75.15 43.4587V60.4347C75.15 60.9978 74.6972 61.4533 74.1375 61.4533ZM63.9 59.4162H73.1222V44.4772H63.9V59.4162ZM37.575 61.4533C37.0154 61.4533 36.5625 60.9978 36.5625 60.4347V43.4587C36.5625 42.8956 37.0154 42.4401 37.575 42.4401H48.825C49.3847 42.4401 49.8375 42.8956 49.8375 43.4587V60.4347C49.8375 60.9978 49.3847 61.4533 48.825 61.4533H37.575ZM47.8125 59.4162V44.4772H38.5875V59.4162H47.8125ZM23.5125 61.4533H12.2625C11.7028 61.4533 11.25 60.9978 11.25 60.4347V43.4587C11.25 42.8956 11.7028 42.4401 12.2625 42.4401H23.5125C24.0722 42.4401 24.525 42.8956 24.525 43.4587V60.4347C24.525 60.9978 24.0722 61.4533 23.5125 61.4533ZM13.275 59.4162H22.5V44.4772H13.275V59.4162ZM79.7625 35.9892H6.63754V33.9521H79.7625V35.9892ZM85.3875 27.5012H1.01254C0.556912 27.5012 0.157537 27.1956 0.0365996 26.7542C-0.0843379 26.3129 0.101287 25.8432 0.492225 25.6084L42.6797 0.144296C42.9975 -0.0480988 43.4025 -0.0480988 43.7203 0.144296L85.9079 25.6084C86.2988 25.8432 86.4816 26.3129 86.3607 26.7542C86.2425 27.1956 85.8432 27.5012 85.3875 27.5012ZM4.66879 25.4641H81.7313L43.2 2.20689L4.66879 25.4641ZM43.2 20.4278C39.541 20.4278 36.5625 17.4316 36.5625 13.7506C36.5625 10.0696 39.541 7.07335 43.2 7.07335C46.8619 7.07335 49.8375 10.0696 49.8375 13.7506C49.8375 17.4316 46.8619 20.4278 43.2 20.4278ZM43.2 9.11048C40.6575 9.11048 38.5875 11.1929 38.5875 13.7506C38.5875 16.3083 40.6575 18.3907 43.2 18.3907C45.7425 18.3907 47.8125 16.3083 47.8125 13.7506C47.8125 11.1929 45.7425 9.11048 43.2 9.11048Z" stroke="#116FFF"/>
</svg>
