<svg width="90" height="73" viewBox="0 0 90 73" fill="none" xmlns="http://www.w3.org/2000/svg">
<path d="M29.2502 51.3992C29.0609 51.3992 28.8834 51.4271 28.7242 51.4792L29.2502 51.3992ZM29.2502 51.3992C37.1347 51.3992 43.5422 57.8676 43.5001 65.8561C43.4848 68.7499 41.1225 71.0806 38.2501 71.0806H6.75021C3.87785 71.0806 1.51551 68.7499 1.50021 65.8561C1.45812 57.8676 7.86567 51.3992 15.7502 51.3992C15.9389 51.3992 16.1152 51.427 16.2751 51.4793L29.2502 51.3992ZM29.2502 1.5H83.25C86.0869 1.5 88.5 3.92441 88.5 7.02983V51.9419C88.5 55.0473 86.0869 57.4717 83.25 57.4717H49.9864C49.2666 55.2407 48.1638 53.1941 46.7535 51.3992H54.0001H55.5001V49.8992V42.3266H70.5V49.8992V51.3992H72H81H82.5V49.8992V9.07257V7.57257H81H31.5002H30.0002V9.07257V13.6886C28.1373 12.8812 26.1251 12.344 24.0002 12.1701V7.02983C24.0002 3.92442 26.4132 1.5 29.2502 1.5ZM22.5002 52.5332C24.71 52.5332 26.7862 52.1138 28.7238 51.4793H16.2752C18.214 52.1137 20.2902 52.5332 22.5002 52.5332ZM34.5001 31.754C34.5001 38.453 29.1163 43.8629 22.5002 43.8629C15.884 43.8629 10.5002 38.453 10.5002 31.754C10.5002 25.055 15.884 19.6451 22.5002 19.6451C29.1163 19.6451 34.5001 25.055 34.5001 31.754Z" fill="#E8EDFC" stroke="#2078FF" stroke-width="3"/>
</svg>
