<svg width="68" height="76" viewBox="0 0 68 76" fill="none" xmlns="http://www.w3.org/2000/svg">
<path d="M31.0005 66.9133L29.579 66.2526C23.8335 63.5822 17.5797 62.1988 11.2505 62.198L31.0005 66.9133ZM31.0005 66.9133V65.3458M31.0005 66.9133V65.3458M31.0005 65.3458V42.7217V42.1597L30.5203 41.8675C26.5296 39.439 22.133 37.7598 17.5447 36.9119L17.4546 36.8953H17.363H17.0261C13.8353 36.4136 10.5955 36.3523 7.38872 36.713L6.5005 36.8129V37.7067V61.3866V62.5453M31.0005 65.3458L6.5005 62.5453M6.5005 62.5453L7.64678 62.3758M6.5005 62.5453L7.64678 62.3758M7.64678 62.3758C8.83762 62.1997 10.0027 62.198 11.2504 62.198L7.64678 62.3758ZM56.2505 31.1654L56.2557 31.1654C58.9347 31.1515 61.6094 31.3859 64.2457 31.8655C64.8752 31.9816 65.4457 32.3155 65.8579 32.8108C66.27 33.3061 66.4977 33.9314 66.5005 34.5788C66.5005 34.5795 66.5005 34.5801 66.5005 34.5807L66.5005 65.6852V65.6868C66.5012 66.0947 66.4124 66.4975 66.2408 66.8666C66.0692 67.2357 65.819 67.5618 65.5084 67.8219L65.5038 67.8258C65.1952 68.0875 64.8335 68.2773 64.4444 68.3823C64.0579 68.4866 63.6535 68.5046 63.2595 68.4351C60.9515 67.9833 58.6065 67.7504 56.2552 67.7394L56.2526 67.7394C48.7213 67.7237 41.3557 69.953 35.086 74.1439L34.8764 74.225H34.8005H34.6275L34.4645 74.2831C34.2349 74.365 33.9936 74.409 33.7502 74.4134C33.3459 74.4065 32.9468 74.3196 32.5754 74.1576L32.556 74.1491L32.5362 74.1414L32.1491 73.9917C25.9384 69.905 18.6743 67.7312 11.2494 67.7394L11.2368 67.7394L11.2242 67.7397C8.8721 67.8016 6.53098 68.0855 4.23176 68.5877C3.84081 68.6551 3.43991 68.6365 3.05656 68.5331C2.66752 68.4281 2.3058 68.2383 1.9972 67.9766L1.99257 67.9728C1.682 67.7126 1.43183 67.3866 1.26021 67.0175C1.08858 66.6484 0.999839 66.2455 1.0005 65.8376V65.836V34.7279V34.7198L1.00037 34.7117C0.9897 34.0541 1.21153 33.4148 1.62522 32.9075C2.0388 32.4004 2.61703 32.0583 3.25633 31.9408L3.25633 31.9408L3.26357 31.9394C5.89724 31.4351 8.57152 31.176 11.2525 31.1654C12.8448 31.1654 14.2896 31.1683 15.6479 31.4134L16.25 31.5221L16.6209 31.0354C18.4716 28.6068 20.8046 26.5927 23.4712 25.1209L24.5803 24.5088L23.7274 23.5721C21.4858 21.1105 20.2406 17.8937 20.238 14.554C20.2382 10.9576 21.6592 7.50959 24.1867 4.96816C26.7142 2.42675 30.141 1 33.713 1C37.285 1 40.7118 2.42675 43.2393 4.96816C45.7668 7.50959 47.1878 10.9576 47.188 14.554C47.1854 17.8937 45.9402 21.1105 43.6986 23.5721L42.8415 24.5134L43.9589 25.1232C46.6373 26.5851 48.9705 28.6116 50.7987 31.0646L51.175 31.5696L51.793 31.4483C53.2195 31.1685 54.6597 31.1654 56.2505 31.1654ZM33.8242 6.54407L33.7505 6.53862L33.6768 6.54407C31.6667 6.69257 29.788 7.60025 28.4176 9.08314C27.0474 10.5659 26.2866 12.514 26.2866 14.5359C26.2866 16.5579 27.0474 18.506 28.4176 19.9888C29.788 21.4717 31.6667 22.3793 33.6768 22.5278L33.7505 22.5333L33.8242 22.5278C35.8343 22.3793 37.713 21.4717 39.0834 19.9888C40.4536 18.506 41.2144 16.5579 41.2144 14.5359C41.2144 12.514 40.4536 10.5659 39.0834 9.08314C37.713 7.60025 35.8343 6.69257 33.8242 6.54407ZM33.2488 37.0635L33.7469 37.3524L34.2469 37.0666C37.0836 35.4446 40.0852 34.1335 43.2 33.1557L45.0084 32.588L43.5189 31.4157C40.7314 29.2219 37.2982 28.0191 33.7569 27.9965L33.7473 27.9964L33.7377 27.9966C30.187 28.0421 26.7528 29.2736 23.9757 31.4962L22.4805 32.6928L24.3169 33.2359C25.5417 33.5981 26.7377 34.0712 27.9822 34.5641L28.1597 34.6344H28.3505H28.3745C30.0484 35.3401 31.6764 36.1514 33.2488 37.0635ZM59.9 62.3815L61.0005 62.4927V61.3866V37.7067V36.8072L60.106 36.7123C57.0109 36.384 53.8867 36.4582 50.8107 36.933H50.138H50.056L49.9752 36.9463C45.3939 37.7024 40.9917 39.3049 36.9912 41.6726L36.5005 41.963V42.5332V65.1573V66.7204L37.9197 66.0652C44.7904 62.8931 52.378 61.6216 59.9 62.3815Z" fill="#E8EDFC" stroke="#116FFF" stroke-width="2"/>
</svg>
