<svg width="40" height="40" viewBox="0 0 40 40" fill="none" xmlns="http://www.w3.org/2000/svg">
<path d="M23.3009 14.9729C23.3009 15.5866 22.8028 16.084 22.1898 16.084C21.5767 16.084 21.0787 15.5866 21.0787 14.9729C21.0787 14.3599 21.5767 13.8618 22.1898 13.8618C22.8028 13.8618 23.3009 14.3599 23.3009 14.9729Z" fill="#828282"/>
<path d="M18.8564 14.9729C18.8564 15.5866 18.3584 16.084 17.7453 16.084C17.1323 16.084 16.6342 15.5866 16.6342 14.9729C16.6342 14.3599 17.1323 13.8618 17.7453 13.8618C18.3584 13.8618 18.8564 14.3599 18.8564 14.9729Z" fill="#828282"/>
<path d="M19.9674 20.5298C19.3276 20.5298 18.6876 20.3709 18.0523 20.0532C17.7778 19.9159 17.6666 19.5823 17.8038 19.3078C17.9408 19.0335 18.2739 18.9221 18.5493 19.0593C19.5036 19.5367 20.4313 19.5367 21.3857 19.0593C21.6604 18.9221 21.9938 19.0335 22.1311 19.3078C22.2683 19.5823 22.1571 19.9159 21.8826 20.0532C21.2473 20.3709 20.6074 20.5298 19.9674 20.5298Z" fill="#828282"/>
<path d="M25.6278 10.9832C25.3111 10.411 24.9389 9.88878 24.5167 9.43322V10.6277C24.3945 10.6277 24.25 10.6332 24.0945 10.6443C24.35 10.9777 24.5778 11.3443 24.7778 11.7332C25.3667 12.8832 25.7112 14.2554 25.7112 15.7277C25.7112 19.7666 23.1334 23.0499 19.9667 23.0499C16.8001 23.0499 14.2223 19.7666 14.2223 15.7277C14.2223 14.2499 14.5667 12.8777 15.1612 11.7277C15.3612 11.3388 15.589 10.9777 15.839 10.6443C15.6834 10.6332 15.539 10.6277 15.4167 10.6277V9.43322C15.0001 9.88878 14.6223 10.411 14.3056 10.9832C13.5501 12.3332 13.1112 13.9666 13.1112 15.7277C13.1112 20.3777 16.189 24.161 19.9667 24.161C23.7501 24.161 26.8223 20.3777 26.8223 15.7277C26.8222 13.9666 26.3833 12.3332 25.6278 10.9832Z" fill="#828282"/>
<path d="M11.8397 6.47522L14.8619 6.76966L19.9008 7.25855L25.073 6.753L27.9563 6.47522" stroke="#828282" stroke-width="2" stroke-miterlimit="10" stroke-linecap="round" stroke-linejoin="round"/>
<path d="M20.4111 12.9832C20.4 12.9888 20.3944 12.9999 20.3889 13.0054C20.3167 13.0943 20.2278 13.1498 20.1278 13.1777C20.1055 13.1888 20.0833 13.1943 20.0611 13.1943C20.0278 13.2054 20 13.2054 19.9667 13.2054C19.9333 13.2054 19.9 13.2054 19.8722 13.1943C19.85 13.1943 19.8278 13.1888 19.8055 13.1777C19.7333 13.161 19.6667 13.1221 19.6055 13.0721C19.5722 13.0443 19.5444 13.0166 19.5222 12.9832C18.6055 11.9499 16.2722 11.7332 15.1611 11.7277C15.0555 11.7277 14.9611 11.7332 14.8833 11.7332C14.7333 11.7388 14.5833 11.6888 14.4778 11.5832C14.3667 11.4777 14.3055 11.3332 14.3055 11.1832V6.47767C14.3055 6.16656 14.5555 5.92211 14.8611 5.92211C15.1667 5.92211 15.4167 6.16656 15.4167 6.47767V10.6277C15.5389 10.6277 15.6833 10.6332 15.8389 10.6443C16.9722 10.711 18.8167 10.9609 19.9667 11.8888C20.1222 12.0054 20.2611 12.1388 20.3889 12.2888C20.5611 12.4887 20.5667 12.7777 20.4111 12.9832Z" fill="#828282"/>
<path d="M25.6278 6.47767V11.1832C25.6278 11.3332 25.5667 11.4777 25.4611 11.5832C25.35 11.6832 25.2167 11.7388 25.05 11.7388C24.9722 11.7332 24.8778 11.7332 24.7777 11.7332C23.6611 11.7332 21.3222 11.9443 20.411 12.9832C20.3999 12.9888 20.3944 12.9999 20.3888 13.0054C20.3166 13.0943 20.2277 13.1498 20.1277 13.1777C20.1055 13.1888 20.0833 13.1943 20.061 13.1943C20.0277 13.2054 19.9999 13.2054 19.9666 13.2054C19.9333 13.2054 19.8999 13.2054 19.8722 13.1943C19.8499 13.1943 19.8277 13.1888 19.8055 13.1777C19.7333 13.161 19.6666 13.1221 19.6055 13.0721C19.5722 13.0443 19.5444 13.0166 19.5222 12.9832C19.3666 12.7777 19.3722 12.4888 19.5444 12.2888C19.6722 12.1388 19.811 12.0054 19.9666 11.8888C21.1166 10.961 22.961 10.711 24.0944 10.6443C24.2499 10.6332 24.3944 10.6277 24.5166 10.6277V6.47767C24.5166 6.16656 24.7666 5.92211 25.0722 5.92211C25.3777 5.92211 25.6278 6.16656 25.6278 6.47767Z" fill="#828282"/>
<path d="M27.9563 6.47522L19.5508 5.06966L11.8397 6.47522" stroke="#828282" stroke-width="2" stroke-miterlimit="10" stroke-linecap="round" stroke-linejoin="round"/>
<path d="M11.8403 11.6669C11.5332 11.6669 11.2847 11.4182 11.2847 11.1114V6.59967C11.2847 6.29284 11.5332 6.04411 11.8403 6.04411C12.1473 6.04411 12.3958 6.29284 12.3958 6.59967V11.1114C12.3958 11.4182 12.1473 11.6669 11.8403 11.6669Z" fill="#828282"/>
<path d="M10.714 13.1001C10.594 13.1001 10.4731 13.0613 10.3711 12.9815C10.1302 12.7919 10.0879 12.4425 10.2778 12.2013L11.4035 10.7682C11.5929 10.5273 11.9412 10.4848 12.1837 10.6744C12.4246 10.864 12.4669 11.2134 12.277 11.4546L11.1513 12.8877C11.0417 13.0271 10.8789 13.1001 10.714 13.1001Z" fill="#828282"/>
<path d="M11.8403 13.9451C11.5332 13.9451 11.2847 13.6963 11.2847 13.3895V11.1114C11.2847 10.8046 11.5332 10.5558 11.8403 10.5558C12.1473 10.5558 12.3958 10.8046 12.3958 11.1114V13.3895C12.3958 13.6963 12.1473 13.9451 11.8403 13.9451Z" fill="#828282"/>
<path d="M25.4965 14.018C24.611 14.018 22.8923 13.7674 21.1892 12.1143C20.969 11.9005 20.9636 11.5487 21.1773 11.3287C21.3916 11.1084 21.7426 11.1035 21.9629 11.3167C23.9193 13.2159 25.816 12.8955 25.8952 12.8803C26.1952 12.8266 26.486 13.0233 26.5425 13.3228C26.5994 13.6228 26.4057 13.9122 26.1062 13.9711C26.077 13.9771 25.8545 14.018 25.4965 14.018Z" fill="#828282"/>
<path d="M14.4385 14.018C14.0799 14.018 13.8579 13.9771 13.8287 13.9711C13.5276 13.9119 13.3317 13.6198 13.3908 13.3187C13.45 13.0184 13.7402 12.8236 14.0403 12.8803C14.1298 12.8977 16.0216 13.2107 17.972 11.3167C18.1923 11.1035 18.5433 11.1084 18.7576 11.3287C18.9713 11.5487 18.9659 11.9005 18.7457 12.1143C17.0427 13.7674 15.3239 14.018 14.4385 14.018Z" fill="#828282"/>
<path d="M30.4215 32.6682C30.3933 32.6682 30.3651 32.6666 30.3369 32.6622C30.0336 32.6156 29.8253 32.3323 29.8714 32.0296C29.8763 31.9976 30.3309 28.8401 28.6887 26.9309C27.8689 25.9782 26.639 25.4796 25.0298 25.4481C23.1912 26.6623 21.6808 27.4181 19.9598 27.4419C19.9479 27.4425 19.936 27.4425 19.924 27.4425C19.9197 27.4425 19.9164 27.4425 19.9121 27.4425H19.8872C19.879 27.4425 19.8719 27.4425 19.8638 27.4425C19.8557 27.4425 19.8475 27.4425 19.8394 27.4419C18.1174 27.4181 16.608 26.6623 14.7694 25.4481C13.1603 25.4796 11.9303 25.9782 11.1105 26.9309C9.46832 28.8401 9.92293 31.9976 9.92782 32.0296C9.97393 32.3323 9.7656 32.6156 9.46232 32.6622C9.16504 32.7089 8.87638 32.5011 8.82977 32.1978C8.80693 32.0481 8.28938 28.5129 10.2637 26.2115C11.3319 24.9664 12.9031 24.3354 14.9343 24.3354C15.0439 24.3354 15.1514 24.3679 15.2425 24.4287C16.9943 25.5968 18.387 26.3232 19.8996 26.3314C21.4117 26.3238 22.8044 25.5968 24.5567 24.4287C24.6479 24.3679 24.7553 24.3354 24.8649 24.3354C26.8962 24.3354 28.4673 24.9664 29.5356 26.2115C31.5099 28.5129 30.9923 32.0481 30.9695 32.1978C30.9272 32.4723 30.6907 32.6682 30.4215 32.6682Z" fill="#828282"/>
</svg>
