<svg width="35" height="35" viewBox="0 0 35 35" fill="none" xmlns="http://www.w3.org/2000/svg">
<g clip-path="url(#clip0_131_187)">
<path d="M5.25 15.3125C7.18047 15.3125 8.75 13.3506 8.75 10.9375C8.75 8.52441 7.18047 6.5625 5.25 6.5625C3.31953 6.5625 1.75 8.52441 1.75 10.9375C1.75 13.3506 3.31953 15.3125 5.25 15.3125ZM29.75 15.3125C31.6805 15.3125 33.25 13.3506 33.25 10.9375C33.25 8.52441 31.6805 6.5625 29.75 6.5625C27.8195 6.5625 26.25 8.52441 26.25 10.9375C26.25 13.3506 27.8195 15.3125 29.75 15.3125ZM31.5 17.5H28C27.0375 17.5 26.168 17.9854 25.5336 18.7715C27.7375 20.2822 29.3016 23.0098 29.6406 26.25H33.25C34.218 26.25 35 25.2725 35 24.0625V21.875C35 19.4619 33.4305 17.5 31.5 17.5ZM17.5 17.5C20.8852 17.5 23.625 14.0752 23.625 9.84375C23.625 5.6123 20.8852 2.1875 17.5 2.1875C14.1148 2.1875 11.375 5.6123 11.375 9.84375C11.375 14.0752 14.1148 17.5 17.5 17.5ZM21.7 19.6875H21.2461C20.1086 20.3711 18.8453 20.7812 17.5 20.7812C16.1547 20.7812 14.8969 20.3711 13.7539 19.6875H13.3C9.82187 19.6875 7 23.2148 7 27.5625V29.5312C7 31.3428 8.17578 32.8125 9.625 32.8125H25.375C26.8242 32.8125 28 31.3428 28 29.5312V27.5625C28 23.2148 25.1781 19.6875 21.7 19.6875ZM9.46641 18.7715C8.83203 17.9854 7.9625 17.5 7 17.5H3.5C1.56953 17.5 0 19.4619 0 21.875V24.0625C0 25.2725 0.782031 26.25 1.75 26.25H5.35391C5.69844 23.0098 7.2625 20.2822 9.46641 18.7715Z" fill="#BDBDBD"/>
</g>
<defs>
<clipPath id="clip0_131_187">
<rect width="35" height="35" fill="white"/>
</clipPath>
</defs>
</svg>
