<svg width="40" height="40" viewBox="0 0 40 40" fill="none" xmlns="http://www.w3.org/2000/svg">
<path d="M28.75 32.5C29.4404 32.5 30 31.9404 30 31.25C30 30.5596 29.4404 30 28.75 30C28.0596 30 27.5 30.5596 27.5 31.25C27.5 31.9404 28.0596 32.5 28.75 32.5Z" fill="#BDBDBD"/>
<path d="M32.5 27.5V35H7.5V27.5H32.5ZM32.5 25H7.5C6.83696 25 6.20107 25.2634 5.73223 25.7322C5.26339 26.2011 5 26.837 5 27.5V35C5 35.663 5.26339 36.2989 5.73223 36.7678C6.20107 37.2366 6.83696 37.5 7.5 37.5H32.5C33.163 37.5 33.7989 37.2366 34.2678 36.7678C34.7366 36.2989 35 35.663 35 35V27.5C35 26.837 34.7366 26.2011 34.2678 25.7322C33.7989 25.2634 33.163 25 32.5 25Z" fill="#BDBDBD"/>
<path d="M25.7375 5.7375L21.25 10.2125V0H18.75V10.2125L14.2625 5.7375L12.5 7.5L20 15L27.5 7.5L25.7375 5.7375Z" fill="#BDBDBD"/>
<path d="M25.7375 13.2375L20 18.95L14.2625 13.2375L12.5 15L20 22.5L27.5 15L25.7375 13.2375Z" fill="#BDBDBD"/>
<path d="M10 30H25V32.5H10V30Z" fill="#BDBDBD"/>
</svg>
