<svg width="40" height="28" viewBox="0 0 40 28" fill="none" xmlns="http://www.w3.org/2000/svg">
<g clip-path="url(#clip0_131_248)">
<path opacity="0.1" d="M10.1755 11.1342H5.93893C5.78889 11.1342 5.66727 11.2558 5.66727 11.4059V12.3075C5.66727 12.4575 5.78889 12.5792 5.93893 12.5792H10.1755C10.3255 12.5792 10.4472 12.4575 10.4472 12.3075V11.4059C10.4472 11.2558 10.3255 11.1342 10.1755 11.1342Z" fill="#828282"/>
<path opacity="0.1" d="M15.1777 12.5795H10.9411C10.7911 12.5795 10.6695 12.7012 10.6695 12.8512V13.7528C10.6695 13.9029 10.7911 14.0245 10.9411 14.0245H15.1777C15.3277 14.0245 15.4494 13.9029 15.4494 13.7528V12.8512C15.4494 12.7012 15.3277 12.5795 15.1777 12.5795Z" fill="#828282"/>
<path opacity="0.1" d="M20.1803 14.0245H15.9437C15.7937 14.0245 15.672 14.1461 15.672 14.2962V15.1978C15.672 15.3478 15.7937 15.4695 15.9437 15.4695H20.1803C20.3303 15.4695 20.4519 15.3478 20.4519 15.1978V14.2962C20.4519 14.1461 20.3303 14.0245 20.1803 14.0245Z" fill="#828282"/>
<path opacity="0.1" d="M10.1755 8.96674H5.93893C5.78889 8.96674 5.66727 9.08836 5.66727 9.2384V10.14C5.66727 10.2901 5.78889 10.4117 5.93893 10.4117H10.1755C10.3255 10.4117 10.4472 10.2901 10.4472 10.14V9.2384C10.4472 9.08836 10.3255 8.96674 10.1755 8.96674Z" fill="#828282"/>
<path opacity="0.1" d="M15.1777 10.4117H10.9411C10.7911 10.4117 10.6695 10.5333 10.6695 10.6833V11.585C10.6695 11.735 10.7911 11.8567 10.9411 11.8567H15.1777C15.3277 11.8567 15.4494 11.735 15.4494 11.585V10.6833C15.4494 10.5333 15.3277 10.4117 15.1777 10.4117Z" fill="#828282"/>
<path opacity="0.1" d="M20.1803 11.857H15.9437C15.7937 11.857 15.672 11.9786 15.672 12.1287V13.0303C15.672 13.1804 15.7937 13.302 15.9437 13.302H20.1803C20.3303 13.302 20.4519 13.1804 20.4519 13.0303V12.1287C20.4519 11.9786 20.3303 11.857 20.1803 11.857Z" fill="#828282"/>
<path opacity="0.1" d="M25.7382 11.1342H21.5016C21.3516 11.1342 21.23 11.2558 21.23 11.4059V12.3075C21.23 12.4575 21.3516 12.5792 21.5016 12.5792H25.7382C25.8882 12.5792 26.0099 12.4575 26.0099 12.3075V11.4059C26.0099 11.2558 25.8882 11.1342 25.7382 11.1342Z" fill="#828282"/>
<path opacity="0.1" d="M30.7404 12.5795H26.5038C26.3538 12.5795 26.2322 12.7012 26.2322 12.8512V13.7528C26.2322 13.9029 26.3538 14.0245 26.5038 14.0245H30.7404C30.8904 14.0245 31.0121 13.9029 31.0121 13.7528V12.8512C31.0121 12.7012 30.8904 12.5795 30.7404 12.5795Z" fill="#828282"/>
<path opacity="0.1" d="M35.743 14.0245H31.5064C31.3564 14.0245 31.2347 14.1461 31.2347 14.2962V15.1978C31.2347 15.3478 31.3564 15.4695 31.5064 15.4695H35.743C35.893 15.4695 36.0146 15.3478 36.0146 15.1978V14.2962C36.0146 14.1461 35.893 14.0245 35.743 14.0245Z" fill="#828282"/>
<path opacity="0.1" d="M25.7382 8.96674H21.5016C21.3516 8.96674 21.23 9.08836 21.23 9.2384V10.14C21.23 10.2901 21.3516 10.4117 21.5016 10.4117H25.7382C25.8882 10.4117 26.0099 10.2901 26.0099 10.14V9.2384C26.0099 9.08836 25.8882 8.96674 25.7382 8.96674Z" fill="#828282"/>
<path opacity="0.1" d="M30.7404 10.4117H26.5038C26.3538 10.4117 26.2322 10.5333 26.2322 10.6833V11.585C26.2322 11.735 26.3538 11.8567 26.5038 11.8567H30.7404C30.8904 11.8567 31.0121 11.735 31.0121 11.585V10.6833C31.0121 10.5333 30.8904 10.4117 30.7404 10.4117Z" fill="#828282"/>
<path opacity="0.1" d="M35.743 11.857H31.5064C31.3564 11.857 31.2347 11.9786 31.2347 12.1287V13.0303C31.2347 13.1804 31.3564 13.302 31.5064 13.302H35.743C35.893 13.302 36.0146 13.1804 36.0146 13.0303V12.1287C36.0146 11.9786 35.893 11.857 35.743 11.857Z" fill="#828282"/>
<path opacity="0.1" d="M10.1755 6.07642H5.93893C5.78889 6.07642 5.66727 6.19804 5.66727 6.34808V7.24972C5.66727 7.39976 5.78889 7.52139 5.93893 7.52139H10.1755C10.3255 7.52139 10.4472 7.39976 10.4472 7.24972V6.34808C10.4472 6.19804 10.3255 6.07642 10.1755 6.07642Z" fill="#828282"/>
<path opacity="0.1" d="M15.1777 7.52139H10.9411C10.7911 7.52139 10.6695 7.64302 10.6695 7.79306V8.6947C10.6695 8.84474 10.7911 8.96637 10.9411 8.96637H15.1777C15.3277 8.96637 15.4494 8.84474 15.4494 8.6947V7.79306C15.4494 7.64302 15.3277 7.52139 15.1777 7.52139Z" fill="#828282"/>
<path opacity="0.1" d="M20.1803 8.96674H15.9437C15.7937 8.96674 15.672 9.08836 15.672 9.2384V10.14C15.672 10.2901 15.7937 10.4117 15.9437 10.4117H20.1803C20.3303 10.4117 20.4519 10.2901 20.4519 10.14V9.2384C20.4519 9.08836 20.3303 8.96674 20.1803 8.96674Z" fill="#828282"/>
<path opacity="0.1" d="M10.1755 3.90858H5.93893C5.78889 3.90858 5.66727 4.03021 5.66727 4.18025V5.0819C5.66727 5.23194 5.78889 5.35356 5.93893 5.35356H10.1755C10.3255 5.35356 10.4472 5.23194 10.4472 5.0819V4.18025C10.4472 4.03021 10.3255 3.90858 10.1755 3.90858Z" fill="#828282"/>
<path opacity="0.1" d="M15.1777 5.35393H10.9411C10.7911 5.35393 10.6695 5.47556 10.6695 5.62559V6.52724C10.6695 6.67727 10.7911 6.7989 10.9411 6.7989H15.1777C15.3277 6.7989 15.4494 6.67727 15.4494 6.52724V5.62559C15.4494 5.47556 15.3277 5.35393 15.1777 5.35393Z" fill="#828282"/>
<path opacity="0.1" d="M20.1803 6.7989H15.9437C15.7937 6.7989 15.672 6.92053 15.672 7.07057V7.97221C15.672 8.12225 15.7937 8.24388 15.9437 8.24388H20.1803C20.3303 8.24388 20.4519 8.12225 20.4519 7.97221V7.07057C20.4519 6.92053 20.3303 6.7989 20.1803 6.7989Z" fill="#828282"/>
<path opacity="0.1" d="M25.7382 6.07642H21.5016C21.3516 6.07642 21.23 6.19804 21.23 6.34808V7.24972C21.23 7.39976 21.3516 7.52139 21.5016 7.52139H25.7382C25.8882 7.52139 26.0099 7.39976 26.0099 7.24972V6.34808C26.0099 6.19804 25.8882 6.07642 25.7382 6.07642Z" fill="#828282"/>
<path opacity="0.1" d="M30.7404 7.52139H26.5038C26.3538 7.52139 26.2322 7.64302 26.2322 7.79306V8.6947C26.2322 8.84474 26.3538 8.96637 26.5038 8.96637H30.7404C30.8904 8.96637 31.0121 8.84474 31.0121 8.6947V7.79306C31.0121 7.64302 30.8904 7.52139 30.7404 7.52139Z" fill="#828282"/>
<path opacity="0.1" d="M35.743 8.96674H31.5064C31.3564 8.96674 31.2347 9.08836 31.2347 9.2384V10.14C31.2347 10.2901 31.3564 10.4117 31.5064 10.4117H35.743C35.893 10.4117 36.0146 10.2901 36.0146 10.14V9.2384C36.0146 9.08836 35.893 8.96674 35.743 8.96674Z" fill="#828282"/>
<path opacity="0.1" d="M25.7382 3.90858H21.5016C21.3516 3.90858 21.23 4.03021 21.23 4.18025V5.0819C21.23 5.23194 21.3516 5.35356 21.5016 5.35356H25.7382C25.8882 5.35356 26.0099 5.23194 26.0099 5.0819V4.18025C26.0099 4.03021 25.8882 3.90858 25.7382 3.90858Z" fill="#828282"/>
<path opacity="0.1" d="M30.7404 5.35393H26.5038C26.3538 5.35393 26.2322 5.47556 26.2322 5.62559V6.52724C26.2322 6.67727 26.3538 6.7989 26.5038 6.7989H30.7404C30.8904 6.7989 31.0121 6.67727 31.0121 6.52724V5.62559C31.0121 5.47556 30.8904 5.35393 30.7404 5.35393Z" fill="#828282"/>
<path opacity="0.1" d="M35.743 6.7989H31.5064C31.3564 6.7989 31.2347 6.92053 31.2347 7.07057V7.97221C31.2347 8.12225 31.3564 8.24388 31.5064 8.24388H35.743C35.893 8.24388 36.0146 8.12225 36.0146 7.97221V7.07057C36.0146 6.92053 35.893 6.7989 35.743 6.7989Z" fill="#828282"/>
<path opacity="0.1" d="M20 27.7879C31.0457 27.7879 40 26.1591 40 24.1499C40 22.1407 31.0457 20.5119 20 20.5119C8.9543 20.5119 0 22.1407 0 24.1499C0 26.1591 8.9543 27.7879 20 27.7879Z" fill="#828282"/>
<path d="M8.77513 11.7367L7.09323 22.0475L14.6984 21.2431L14.3693 20.3656L8.42778 20.8592L9.81718 11.7185L8.77513 11.7367Z" fill="#4F4F4F" fill-opacity="0.76"/>
<path d="M6.80072 0.0365631L17.0384 0L20 22.4132L9.72577 23.8026L6.80072 0.0365631Z" fill="#4F4F4F" fill-opacity="0.76"/>
<path d="M7.91589 0.895798H16.1791L19.0676 21.7367L10.5484 22.9068L7.91589 0.895798Z" fill="white"/>
<path d="M15.709 20.7993C15.7609 20.8987 15.7996 21.0062 15.8673 21.0958C16.0647 21.3598 16.4395 21.4011 16.7207 21.5733C16.7347 21.5804 16.7463 21.5917 16.7539 21.6055C16.7667 21.6358 16.7382 21.6676 16.7108 21.6866C16.4976 21.8362 16.2179 21.8395 15.9572 21.8377C15.8696 21.8408 15.782 21.8324 15.6965 21.8128C15.5587 21.7762 15.4406 21.6801 15.3046 21.6409C15.2341 21.6233 15.1619 21.6132 15.0892 21.6106L14.8037 21.5912C14.7276 21.5901 14.6524 21.5762 14.581 21.5499C14.5454 21.5363 14.5139 21.5139 14.4894 21.4848C14.4648 21.4557 14.448 21.4209 14.4406 21.3835C14.4326 21.3228 14.4585 21.264 14.4739 21.2047C14.5104 21.0643 14.4991 20.8947 14.6084 20.7989C14.6535 20.7644 14.7051 20.7395 14.7602 20.7258C14.9589 20.6588 15.1617 20.6048 15.3675 20.5642C15.5368 20.5309 15.634 20.6552 15.709 20.7993Z" fill="#4F4F4F" fill-opacity="0.76"/>
<path d="M12.479 21.5901C12.4863 21.668 12.4885 21.7572 12.4322 21.8117C12.3971 21.8408 12.3547 21.8598 12.3097 21.8666C12.0395 21.9294 11.7382 21.9338 11.5031 21.7868C11.4786 21.7729 11.4571 21.7544 11.4395 21.7324C11.4199 21.7024 11.4088 21.6676 11.4073 21.6318C11.3989 21.5283 11.4307 21.4263 11.4596 21.3265C11.528 21.0897 11.5799 20.8484 11.615 20.6044C11.6179 20.5843 12.3049 20.7141 12.3506 20.7821C12.408 20.8662 12.4084 21.068 12.4238 21.1682C12.4469 21.3081 12.4653 21.4488 12.479 21.5901Z" fill="#4F4F4F" fill-opacity="0.76"/>
<path d="M15.0362 12.0757L15.219 13.7755C15.2556 14.1229 15.294 14.472 15.2688 14.8205C15.2395 15.2227 15.1269 15.6249 15.1744 16.0234C15.1931 16.1784 15.2355 16.3305 15.2417 16.4867C15.2429 16.5905 15.2376 16.6943 15.226 16.7974C15.1433 17.8289 15.4048 18.8523 15.551 19.8764C15.5745 20.0027 15.5797 20.1318 15.5664 20.2596C15.5474 20.3894 15.5093 20.5598 15.6249 20.6212L14.5397 21.0146C14.4011 20.841 14.4929 20.5708 14.4666 20.3503C14.4424 20.1517 14.3335 19.9748 14.2753 19.7835C14.2227 19.6117 14.2117 19.4307 14.1945 19.2523C14.0998 18.2808 13.8091 17.3346 13.7411 16.3609C13.739 16.2668 13.7267 16.1733 13.7046 16.0819C13.668 15.9609 13.5949 15.8552 13.5415 15.7415C13.4596 15.5708 13.4194 15.3835 13.3799 15.1985L13.1477 14.1108C12.913 14.4603 12.9225 14.9152 12.8761 15.3342C12.811 15.9192 12.6655 16.4943 12.547 17.072C12.5195 17.1963 12.4988 17.3221 12.4852 17.4486C12.4545 17.7876 12.5155 18.1298 12.483 18.4684C12.4464 18.8607 12.2815 19.2435 12.3214 19.6358C12.3433 19.853 12.4267 20.0585 12.483 20.2691C12.5393 20.4797 12.5671 20.7108 12.4812 20.9115C12.1809 20.8013 11.8583 20.7656 11.5411 20.8077C11.1927 20.4512 11.1309 19.9539 11.1071 19.4548C11.0834 18.9558 11.1408 18.4559 11.0786 17.9616C11.0603 17.8154 11.0318 17.6728 11.0271 17.5269C11.0117 17.0592 11.2366 16.6216 11.3484 16.1671C11.4491 15.758 11.4587 15.3317 11.3766 14.9185C11.3218 14.6453 11.2274 14.3803 11.1938 14.1035C11.1481 13.7155 11.2256 13.3247 11.3035 12.9415C11.3558 12.683 11.4077 12.4245 11.4669 12.1675C11.5305 11.8914 11.6062 11.6095 11.7762 11.3835C12.0483 11.0219 12.5313 10.8614 12.9828 10.8965C13.4344 10.9316 13.8559 11.1371 14.2289 11.3931C14.5228 11.5895 14.7936 11.8185 15.0362 12.0757Z" fill="#192534"/>
<path d="M13.823 5.56673C13.8025 5.59967 13.7883 5.63611 13.781 5.67423C13.7718 5.74918 13.8176 5.81792 13.8541 5.88337C13.901 5.96745 13.937 6.05714 13.9612 6.15028C13.9786 6.20792 13.984 6.26854 13.977 6.32834C13.968 6.37326 13.952 6.41646 13.9294 6.45631C13.8589 6.59232 13.7543 6.7181 13.6121 6.77477C13.5019 6.81533 13.3818 6.82019 13.2687 6.78867C13.1564 6.75688 13.0503 6.70645 12.9547 6.63949C12.8741 6.58842 12.8016 6.52557 12.7397 6.45302C12.6805 6.37369 12.6307 6.28781 12.5912 6.19708C12.5152 6.03803 12.438 5.86801 12.4519 5.6936C12.4526 5.67779 12.4556 5.66216 12.4607 5.64717C12.4726 5.62008 12.4892 5.59532 12.5097 5.57404C12.6657 5.38919 12.7457 5.15199 12.7335 4.91042L13.2662 5.03145C13.3835 5.05814 13.5009 5.08483 13.6168 5.1181C13.7119 5.14552 13.8581 5.18355 13.9199 5.26838C13.9817 5.3532 13.8651 5.48922 13.823 5.56673Z" fill="#F2F2F2"/>
<path d="M13.5378 5.47605C14.0725 5.47605 14.506 5.04258 14.506 4.50786C14.506 3.97315 14.0725 3.53967 13.5378 3.53967C13.0031 3.53967 12.5696 3.97315 12.5696 4.50786C12.5696 5.04258 13.0031 5.47605 13.5378 5.47605Z" fill="#F2F2F2"/>
<path d="M13.3821 6.46106C13.423 6.37148 13.5115 6.31481 13.5923 6.2585C13.6731 6.20219 13.755 6.13016 13.7708 6.03254C13.7717 6.01046 13.7772 5.98881 13.7868 5.96892C13.8179 5.92212 13.8918 5.94552 13.936 5.97989C14.0435 6.06362 14.1166 6.18245 14.1879 6.29835C14.2802 6.4393 14.3591 6.58851 14.4238 6.74406C14.5265 7.01499 14.539 7.31078 14.5503 7.6C14.5605 7.86325 14.5704 8.13053 14.5064 8.38574C14.4662 8.54735 14.3967 8.7042 14.3927 8.87056C14.3806 9.47495 14.1708 10.0526 14.1561 10.657C14.155 10.8318 14.1638 11.0065 14.1825 11.1803L14.2168 11.5726C13.6852 11.5421 13.155 11.4954 12.6263 11.4325C12.611 11.2519 12.5594 11.0768 12.5123 10.902C12.3191 10.1875 12.1953 9.45601 12.1426 8.71773C12.1145 8.32577 12.0856 7.93528 12.0421 7.54479C12.0029 7.18976 11.9262 6.83254 11.9722 6.47824C11.9963 6.3172 12.047 6.16128 12.1221 6.01682C12.1459 5.95927 12.1867 5.91039 12.2391 5.87678C12.2653 5.86413 12.2931 5.85515 12.3218 5.85009C12.4047 5.8333 12.4888 5.82339 12.5733 5.82047C12.594 5.81873 12.6148 5.82072 12.6347 5.82632C12.6704 5.84408 12.6996 5.87244 12.7185 5.90749C12.8814 6.15241 13.1119 6.34473 13.3821 6.46106Z" fill="#F2F2F2"/>
<path d="M12.9331 6.38355C13.0011 6.4808 13.1452 6.50384 13.2081 6.60292C13.2293 6.64434 13.2453 6.68817 13.256 6.73345C13.2944 6.85594 13.3719 6.96234 13.419 7.0819C13.487 7.25374 13.4889 7.44387 13.4896 7.62852C13.4963 7.77559 13.485 7.92293 13.456 8.06727C13.434 8.15758 13.3982 8.2435 13.3719 8.33272C13.3272 8.48443 13.3106 8.64304 13.3229 8.80072C13.3229 8.83479 13.332 8.86823 13.3492 8.89762C13.374 8.92698 13.4064 8.94898 13.4428 8.96124C13.5499 9.0084 13.6622 9.05666 13.7792 9.0457C13.8032 9.04494 13.8264 9.03719 13.8461 9.02339C13.8597 9.01104 13.8708 8.99629 13.879 8.97988L13.9521 8.8563C14.0183 8.74332 14.0874 8.61681 14.0618 8.48775C14.0432 8.42113 14.0153 8.35748 13.9788 8.29871C13.9321 8.20333 13.8923 8.10473 13.8596 8.00365C13.743 7.66837 13.6249 7.32833 13.5986 6.9744C13.5831 6.83971 13.5981 6.70325 13.6424 6.57514C13.6768 6.49628 13.72 6.42158 13.7711 6.35247C13.7596 6.33693 13.7435 6.32529 13.7252 6.31909C13.7068 6.31288 13.687 6.31241 13.6684 6.31773C13.6316 6.3291 13.596 6.34391 13.562 6.36197C13.4545 6.40731 13.3353 6.39086 13.2267 6.35978C13.1843 6.34735 13.117 6.30494 13.0731 6.30786C13.0582 6.30969 12.9357 6.38793 12.9331 6.38355Z" fill="#828282"/>
<path d="M13.789 6.37953C13.7671 6.36198 13.7331 6.34589 13.7137 6.36636C13.7072 6.37524 13.7025 6.3853 13.6998 6.39598C13.6808 6.44717 13.6249 6.4724 13.574 6.49214C13.5232 6.51188 13.4684 6.52285 13.4377 6.48519C13.428 6.47053 13.4232 6.45316 13.424 6.4356C13.4249 6.41805 13.4313 6.40122 13.4424 6.38757C13.4649 6.36047 13.492 6.33757 13.5225 6.31993C13.6907 6.20122 13.8052 6.02096 13.8413 5.81828C13.8885 5.85577 13.9197 5.90972 13.9287 5.96929C13.9408 6.02742 13.9422 6.08739 13.9543 6.14552C13.9722 6.22889 14.012 6.30677 14.0212 6.39123C14.0259 6.4362 14.0212 6.48154 14.0212 6.52651C14.0228 6.57048 14.028 6.61425 14.0365 6.65741C13.951 6.56673 13.8907 6.46033 13.789 6.37953Z" fill="#F2F2F2"/>
<path d="M13.049 6.13126C13.0124 6.09653 12.9759 6.06362 12.9393 6.02815C12.7789 5.87155 12.6577 5.67924 12.5857 5.46691C12.5389 5.50347 12.4874 5.55174 12.4863 5.61316C12.4905 5.65663 12.5072 5.69793 12.5346 5.73199C12.6728 5.94974 12.7641 6.19395 12.8026 6.44899C12.8223 6.41814 12.8497 6.39288 12.882 6.37565C12.9144 6.35843 12.9506 6.34981 12.9872 6.35064C13.045 6.35064 13.3042 6.5042 13.3229 6.46545C13.3503 6.40475 13.0929 6.17258 13.049 6.13126Z" fill="#F2F2F2"/>
<path d="M13.8654 5.84022C14.2094 6.1826 14.6304 6.43751 15.0932 6.58355C15.1392 6.59358 15.1819 6.61523 15.2172 6.64643C15.2435 6.67934 15.2612 6.7183 15.2687 6.75978C15.3579 7.10859 15.3879 7.46947 15.4175 7.82815C15.4253 7.88747 15.424 7.94763 15.4139 8.00658C15.3923 8.10238 15.3243 8.17989 15.2574 8.25192C15.0475 8.47678 14.808 8.71188 14.7726 9.01755C14.7698 9.07648 14.7629 9.13513 14.7517 9.19305C14.7334 9.26106 14.6928 9.32102 14.668 9.3872C14.5459 9.71298 14.8219 10.1075 14.6537 10.411C14.7448 10.5859 14.8072 10.7743 14.8387 10.9689C14.8444 11.0427 14.8613 11.1152 14.8888 11.1839C14.9389 11.2885 15.042 11.355 15.1232 11.4399C15.3707 11.6936 15.4011 12.0819 15.4157 12.4362C15.4248 12.6358 15.4219 12.8651 15.2694 12.996C15.1813 13.0724 15.061 13.0973 14.9459 13.1163C14.7927 13.1419 14.6259 13.1601 14.4903 13.0845C14.393 13.0303 14.3269 12.9356 14.2636 12.8442C14.1437 12.6698 14.0234 12.4958 13.9097 12.317C13.7298 12.0351 13.5601 11.713 13.612 11.3824C13.5974 11.7207 13.5261 12.0614 13.3601 12.3561C13.1941 12.6508 12.9269 12.8969 12.6025 12.9942C12.2782 13.0914 11.8991 13.0227 11.6574 12.7857C11.5785 12.7045 11.5107 12.6132 11.4559 12.5141C11.3184 12.2785 11.218 12.0231 11.1583 11.7569C11.1426 11.6878 11.1309 11.6106 11.1656 11.5488C11.1821 11.5196 11.2073 11.4965 11.2245 11.4676C11.2823 11.3693 11.2267 11.2453 11.1707 11.1452C11.0855 11.1532 11.0245 11.053 11.0322 10.9675C11.0398 10.8819 11.091 10.8077 11.1272 10.7298C11.2333 10.5002 11.2099 10.2329 11.1587 9.98537C11.1075 9.73784 11.0311 9.49177 11.0369 9.23912C11.0431 8.97185 10.8508 8.73126 10.7042 8.50786C10.6223 8.38208 10.5269 8.26508 10.4556 8.13309C10.3069 7.85532 10.2725 7.53051 10.3598 7.22779C10.411 7.07234 10.4781 6.92261 10.5601 6.78099L10.6808 6.55466C10.7033 6.50058 10.7381 6.45255 10.7826 6.41444C10.8271 6.37633 10.8799 6.34921 10.9367 6.33528L11.7715 6.00622C11.8782 5.96976 11.9795 5.91909 12.0727 5.85557C12.1748 5.77879 12.2508 5.67276 12.3481 5.59086C12.3622 5.57597 12.3792 5.56407 12.3981 5.55584C12.4169 5.54762 12.4372 5.54324 12.4578 5.54296C12.536 5.54991 12.5638 5.64863 12.5718 5.72578C12.5901 5.89835 12.7181 6.04461 12.7616 6.21243C12.9971 7.1393 13.4954 7.99415 13.6322 8.9404C13.7857 8.57148 13.9393 8.20183 14.136 7.85448C14.167 7.80461 14.1931 7.75183 14.2139 7.69689C14.2375 7.61764 14.2463 7.53472 14.2398 7.45228C14.23 7.21426 14.1667 6.98172 14.1042 6.75174C14.023 6.43876 13.9499 6.15027 13.8654 5.84022Z" fill="#4F4F4F" fill-opacity="0.76"/>
<path d="M15.4563 8.67239C15.4724 8.82814 15.4881 8.98427 15.517 9.1382C15.5506 9.31626 15.6018 9.49031 15.6526 9.66435C15.6775 9.76218 15.713 9.85696 15.7587 9.94698C15.7752 9.97311 15.7884 10.0012 15.7978 10.0307C15.8157 10.1038 15.7748 10.177 15.7572 10.2501C15.7046 10.4695 15.8625 10.7133 15.7631 10.9155C15.7331 10.977 15.6808 11.0278 15.661 11.0936C15.638 11.1693 15.661 11.2501 15.6731 11.3283C15.7042 11.5477 15.6292 11.7708 15.5554 11.9817L15.4296 12.3379C15.3148 12.1243 15.1989 11.9086 15.0402 11.7254C14.9835 11.6596 14.9218 11.5985 14.8695 11.5291C14.7915 11.4199 14.7299 11.2999 14.6867 11.1729C14.575 10.8712 14.5113 10.5539 14.4976 10.2325C14.4886 10.1412 14.4991 10.0489 14.5287 9.96197C14.5529 9.91169 14.58 9.86285 14.6099 9.81572C14.7079 9.63912 14.728 9.42998 14.7261 9.22815C14.7243 9.02632 14.7027 8.82376 14.7261 8.62302C14.7452 8.45543 14.7948 8.29273 14.8724 8.14295C14.9182 8.04596 14.9862 7.96115 15.0709 7.89542C15.1342 7.84807 15.2113 7.823 15.2903 7.82412C15.4099 7.83106 15.3824 7.93381 15.3927 8.03289L15.4563 8.67239Z" fill="#4F4F4F" fill-opacity="0.76"/>
<path d="M10.0783 8.17479C10.0037 8.39416 9.93639 8.61549 9.87643 8.83877C9.81793 9.05815 9.76564 9.27874 9.71957 9.50056C9.69591 9.59809 9.68267 9.69786 9.68008 9.79818C9.68476 9.91499 9.7048 10.0307 9.73968 10.1422C9.97515 10.9909 10.4044 11.7737 10.8878 12.5097C11.0259 12.3374 11.1899 12.1877 11.374 12.0658C11.3891 12.0569 11.4017 12.0443 11.4106 12.0293C11.4152 12.015 11.4166 12 11.4146 11.9851C11.4125 11.9703 11.4072 11.9562 11.3989 11.9437C11.2655 11.6702 11.0541 11.4293 10.9876 11.132C10.9598 11.0084 10.9587 10.8797 10.9272 10.7569C10.8867 10.5978 10.796 10.4523 10.7751 10.2892C10.7528 10.1115 10.8117 9.91774 10.7283 9.76016C10.8984 9.69398 10.9967 9.51884 11.0687 9.35102C11.1457 9.17932 11.2007 8.99862 11.2325 8.81318C11.2826 8.45765 11.213 8.09557 11.0347 7.78393C10.9477 7.62847 10.8359 7.48819 10.7038 7.36857C10.6603 7.32945 10.5576 7.2172 10.4943 7.2183C10.4099 7.22013 10.3828 7.35687 10.3587 7.4183C10.2611 7.66912 10.1645 7.92031 10.0783 8.17479Z" fill="#4F4F4F" fill-opacity="0.76"/>
<path d="M11.5927 12.2673C11.6036 12.2753 11.6161 12.2863 11.6131 12.2995C11.6102 12.3126 11.5996 12.3159 11.5901 12.3214C11.5407 12.3565 11.5038 12.4064 11.4848 12.464C11.424 12.6009 11.3711 12.7412 11.3261 12.8841C11.2443 12.7615 11.1481 12.6492 11.0395 12.5495C10.9561 12.4728 10.8629 12.4 10.8183 12.2962C10.8183 12.2932 11.0099 12.1517 11.0274 12.1364C11.0812 12.0885 11.1488 11.9558 11.2044 11.9265C11.2673 11.8936 11.3272 12.0227 11.3751 12.0746C11.441 12.1459 11.5139 12.2105 11.5927 12.2673Z" fill="#F2F2F2"/>
<path d="M14.566 4.35649C14.5634 4.30859 14.5572 4.25558 14.5207 4.2245C14.4886 4.2023 14.4499 4.1916 14.411 4.19415C14.1978 4.18721 13.9773 4.22304 13.7762 4.15137C13.6439 4.10421 13.5309 4.01353 13.4018 3.95722C13.2728 3.90092 13.1075 3.88592 13.0033 3.98062C12.9243 4.05375 12.9028 4.166 12.8753 4.26947C12.815 4.49785 12.7075 4.71107 12.5598 4.89543C12.4607 4.86472 12.3898 4.77624 12.3441 4.68337C12.1887 4.36673 12.2651 3.98867 12.3755 3.65302C12.4121 3.5404 12.4527 3.42888 12.4932 3.31773L12.5825 3.07203C12.6996 3.06053 12.8083 3.0064 12.8881 2.91992L12.9265 3.01316C13.0257 3.00959 13.1214 2.97578 13.2007 2.91627C13.2315 2.97404 13.3104 2.98939 13.3744 2.97075C13.4384 2.9521 13.4936 2.91627 13.5572 2.89762C13.7272 2.84278 13.9086 2.92724 14.087 2.93674C14.1625 2.93491 14.2381 2.9371 14.3134 2.94332C14.524 2.97733 14.6728 3.1755 14.7371 3.37879C14.7799 3.51408 14.8154 3.68044 14.9488 3.72834C14.9517 3.77953 14.8611 3.7894 14.8534 3.83803C14.8525 3.85424 14.8563 3.87037 14.8644 3.88446L14.9868 4.14735C14.9283 4.16205 14.8667 4.159 14.8099 4.13858C14.7547 4.26838 14.5715 4.45558 14.566 4.35649Z" fill="#192534"/>
<path d="M20.7729 4.9287C20.835 5.12918 20.8839 5.33352 20.9192 5.5404C20.9455 5.69542 20.9609 5.86764 20.872 5.99707C21.2106 5.48775 21.5642 4.96307 22.0786 4.63436C21.9738 4.52078 21.8942 4.38643 21.8447 4.24003C21.7953 4.09364 21.7772 3.93848 21.7916 3.78464C21.7945 3.75393 21.3693 3.91444 21.3367 3.93272C21.1876 4.01572 21.0508 4.11883 20.9053 4.20767C20.83 4.25338 20.5163 4.3616 20.5133 4.42705C20.5133 4.4691 20.638 4.5978 20.6614 4.64204C20.7073 4.73396 20.7447 4.82992 20.7729 4.9287Z" fill="#F2F2F2"/>
<path d="M22.3462 24.1382C22.2626 24.0793 22.1647 24.0442 22.0627 24.0364C21.9608 24.0287 21.8586 24.0487 21.7671 24.0943C21.6015 24.1799 21.4899 24.3419 21.3393 24.4516C21.0804 24.6395 20.7386 24.6545 20.4355 24.7561C20.355 24.7832 20.2695 24.8234 20.2355 24.9024C20.2241 24.9356 20.2195 24.9707 20.2221 25.0058C20.2247 25.0408 20.2343 25.0749 20.2505 25.106C20.3011 25.219 20.3899 25.3105 20.5013 25.3645C20.6373 25.4296 20.7938 25.4326 20.9444 25.4344L22.2534 25.4497C22.6556 25.4545 23.0603 25.4592 23.46 25.5093C23.5532 25.521 23.6541 25.5338 23.7364 25.4881C23.8702 25.415 23.8855 25.23 23.8753 25.0775C23.8484 24.6912 23.762 24.3114 23.6194 23.9514C23.6036 23.9115 23.5828 23.8662 23.5386 23.8589C23.5072 23.8574 23.4763 23.8673 23.4515 23.8867C23.0823 24.106 22.6146 24.23 22.2219 24.0545" fill="white"/>
<path d="M23.0015 15.7872C22.8552 16.6366 22.9506 17.5093 23.1152 18.355C23.1455 18.5234 23.1854 18.6899 23.2348 18.8538C23.2936 19.0402 23.373 19.2194 23.4282 19.407C23.5686 19.8823 23.5488 20.3905 23.528 20.8867L23.4322 23.1444C23.4242 23.3338 23.4168 23.5276 23.4739 23.7082C23.4969 23.7813 23.5251 23.8727 23.4669 23.9221C23.4442 23.9384 23.4176 23.9486 23.3898 23.9517C23.1282 23.9999 22.8579 23.9594 22.6219 23.8365L22.596 21.5558C22.5879 20.8526 22.5795 20.1466 22.4713 19.4523C22.3854 18.9002 22.2362 18.3554 22.2263 17.7967C22.2161 17.2117 22.3594 16.6344 22.5057 16.0673C22.5371 15.9459 22.6519 15.8571 22.7463 15.7748C22.7792 15.7423 22.8193 15.718 22.8633 15.7039C22.9071 15.6918 22.9744 15.7503 23.0015 15.7872Z" fill="#4F4F4F" fill-opacity="0.76"/>
<path opacity="0.1" d="M23.0015 15.7872C22.8552 16.6366 22.9506 17.5093 23.1152 18.355C23.1455 18.5234 23.1854 18.6899 23.2348 18.8538C23.2936 19.0402 23.373 19.2194 23.4282 19.407C23.5686 19.8823 23.5488 20.3905 23.528 20.8867L23.4322 23.1444C23.4242 23.3338 23.4168 23.5276 23.4739 23.7082C23.4969 23.7813 23.5251 23.8727 23.4669 23.9221C23.4442 23.9384 23.4176 23.9486 23.3898 23.9517C23.1282 23.9999 22.8579 23.9594 22.6219 23.8365L22.596 21.5558C22.5879 20.8526 22.5795 20.1466 22.4713 19.4523C22.3854 18.9002 22.2362 18.3554 22.2263 17.7967C22.2161 17.2117 22.3594 16.6344 22.5057 16.0673C22.5371 15.9459 22.6519 15.8571 22.7463 15.7748C22.7792 15.7423 22.8193 15.718 22.8633 15.7039C22.9071 15.6918 22.9744 15.7503 23.0015 15.7872Z" fill="black"/>
<path d="M20.256 13.1327C20.2018 13.3554 20.3166 13.5861 20.3038 13.815C20.2965 13.9536 20.2421 14.0918 20.2673 14.2278C20.2925 14.3638 20.3898 14.4662 20.4417 14.5909C20.4796 14.695 20.4996 14.8048 20.5009 14.9155C20.5159 15.189 20.5038 15.464 20.4936 15.7364C20.4764 16.1934 20.4636 16.653 20.524 17.106C20.5765 17.4985 20.6832 17.8818 20.841 18.245C20.8888 18.3438 20.9283 18.4464 20.9591 18.5518C20.9793 18.6499 20.9927 18.7494 20.9993 18.8494C21.034 19.1746 21.1213 19.4921 21.2578 19.7894C21.351 19.9931 21.5137 20.155 21.5653 20.3711C21.6143 20.5781 21.5814 20.7964 21.6168 21.0059C21.6428 21.1613 21.7061 21.3082 21.7412 21.4618C21.7869 21.6603 21.7858 21.8662 21.8088 22.0688C21.8746 22.6538 22.1404 23.2388 21.9817 23.8062C21.9499 23.9203 21.9006 24.0362 21.9229 24.1525C21.9338 24.2095 21.9616 24.2658 21.9492 24.3225C21.939 24.3708 21.9017 24.4081 21.8827 24.4538C21.8461 24.5393 21.8848 24.641 21.9499 24.7072C22.0194 24.7689 22.1001 24.8165 22.1876 24.8476C22.4571 24.9627 22.736 25.0797 23.0285 25.0772C23.0641 25.0791 23.0995 25.0726 23.132 25.0582C23.1847 25.0307 23.2106 24.9711 23.2329 24.9163L23.3828 24.5455C23.4011 24.5006 23.4194 24.4479 23.3942 24.4062C23.3766 24.3834 23.3554 24.3636 23.3313 24.3477C23.2103 24.2457 23.2377 24.0552 23.2699 23.902C23.3521 23.5086 23.3976 23.1083 23.4059 22.7064C23.422 21.905 23.29 21.1082 23.1583 20.3174C23.1126 20.0428 23.0666 19.7664 22.9755 19.5031C22.8845 19.2399 22.7503 18.9865 22.7722 18.713C22.7956 18.4176 22.7189 18.1079 22.7722 17.8165C22.8256 17.5251 22.9101 17.2399 22.9646 16.9488C23.0351 16.5711 23.0527 16.1861 23.0743 15.8029C23.0834 15.6464 23.0951 15.4848 23.1682 15.3459C23.211 15.2647 23.2732 15.1953 23.3211 15.1166C23.4446 14.9123 23.4644 14.6589 23.5825 14.4512C23.6384 14.3528 23.7156 14.2662 23.7565 14.1609C23.7853 14.0778 23.8003 13.9906 23.8011 13.9027C23.8127 13.6821 23.8005 13.4608 23.7646 13.2428C23.1421 12.9261 22.4519 12.7659 21.7536 12.7762C21.4863 12.7806 21.2161 12.8077 20.9653 12.9002C20.7262 12.989 20.5082 13.1137 20.256 13.1327Z" fill="#4F4F4F" fill-opacity="0.76"/>
<path d="M21.755 24.7166C21.6475 24.8505 21.6549 25.0417 21.5861 25.1993C21.5027 25.3905 21.317 25.513 21.1408 25.6245L20.0439 26.3192C19.9839 26.3557 19.9196 26.4007 19.8976 26.4687C19.8872 26.5121 19.8891 26.5576 19.9031 26.6C19.9293 26.6917 19.9781 26.7754 20.045 26.8434C20.112 26.9114 20.1949 26.9614 20.2863 26.989C20.3834 27.0121 20.4831 27.0223 20.5828 27.0194L21.0761 27.0259C21.2263 27.0318 21.3768 27.0259 21.5261 27.0084C21.6629 26.9886 21.796 26.9495 21.932 26.9247C22.1795 26.8797 22.434 26.8837 22.6819 26.8402C22.8337 26.8104 22.9836 26.7717 23.1309 26.7243C23.3101 26.6705 23.4925 26.6146 23.6461 26.5082C23.6884 26.4825 23.7227 26.4455 23.7452 26.4014C23.7711 26.3411 23.7569 26.272 23.7422 26.208L23.5068 25.1733C23.4935 25.0871 23.4621 25.0048 23.4146 24.9316C23.3624 24.8622 23.2684 24.8161 23.1869 24.8457C23.1532 24.861 23.1214 24.8802 23.0922 24.9027C22.9715 24.9821 22.8168 24.9952 22.6742 24.9704C22.5821 24.9539 22.4603 24.9287 22.3861 24.8676C22.3298 24.8212 22.313 24.7492 22.2651 24.6965C22.2315 24.662 22.1911 24.635 22.1464 24.6172C22.1016 24.5993 22.0537 24.5911 22.0056 24.593C21.9575 24.5949 21.9103 24.6069 21.8672 24.6282C21.824 24.6495 21.7858 24.6796 21.755 24.7166Z" fill="white"/>
<path d="M21.0439 4.78611C21.7734 4.78611 22.3649 4.19466 22.3649 3.46508C22.3649 2.7355 21.7734 2.14406 21.0439 2.14406C20.3143 2.14406 19.7228 2.7355 19.7228 3.46508C19.7228 4.19466 20.3143 4.78611 21.0439 4.78611Z" fill="#F2F2F2"/>
<path d="M20.0249 3.5426C20.1514 3.47167 20.1514 3.26728 20.2808 3.19927C20.4102 3.13126 20.5572 3.24936 20.6402 3.36856C20.7612 3.54312 20.8452 3.74059 20.887 3.94882C20.8987 4.00805 20.9097 4.07276 20.9543 4.11408C20.9989 4.1554 21.0574 4.16052 21.1144 4.16637C21.2814 4.18294 21.4486 4.19805 21.6161 4.2117C21.8025 4.2267 21.9993 4.23876 22.1685 4.15869C22.2353 4.12882 22.2927 4.08128 22.3345 4.02121C22.368 3.96353 22.392 3.9008 22.4055 3.83547C22.4929 3.50311 22.581 3.16673 22.5883 2.82304C22.5912 2.68117 22.5788 2.53419 22.5104 2.40987C22.4705 2.33675 22.412 2.27313 22.3956 2.19269C22.3791 2.11225 22.4322 2.00987 22.5155 2.01865C22.4402 2.02174 22.3651 2.00748 22.2961 1.97696C22.23 1.9404 22.181 1.86179 22.2044 1.79013C22.0186 1.81389 21.8834 1.63034 21.7386 1.51151C21.715 1.48817 21.6832 1.47504 21.6501 1.47495C21.6246 1.4813 21.6001 1.49075 21.577 1.50311C21.5038 1.5287 21.4274 1.48007 21.3525 1.45886C21.1514 1.40256 20.8958 1.53857 20.7466 1.39232C20.7609 1.48555 20.6464 1.54808 20.5521 1.54625C20.4578 1.54442 20.3605 1.50969 20.2713 1.54113C20.2842 1.56476 20.2918 1.59096 20.2934 1.61784C20.295 1.64473 20.2907 1.67164 20.2807 1.69666C20.2707 1.72167 20.2553 1.74416 20.2356 1.76254C20.2159 1.78091 20.1924 1.7947 20.1667 1.80292L20.211 1.89945C20.1654 1.90856 20.1233 1.93024 20.0893 1.96202C20.0554 1.99381 20.0311 2.03444 20.019 2.07934C19.9704 2.2713 19.9825 2.54406 19.9942 2.7415C20 2.82815 20.0845 3.51006 20.0249 3.5426Z" fill="#192534"/>
<path d="M21.1521 5.16782C20.4885 5.91407 20.3196 6.96453 20.1781 7.95356L19.9697 9.41389C19.9155 9.79269 19.86 10.1715 19.8128 10.5514C19.7799 10.8113 19.7492 11.0753 19.785 11.3349C19.8132 11.5397 19.8815 11.7371 19.9386 11.9342C20.087 12.4511 20.1609 12.9865 20.158 13.5243C20.2022 13.3942 20.3554 13.3415 20.49 13.3123C21.619 13.0673 22.7969 13.1931 23.8487 13.6709C24.0333 13.1536 23.9986 12.5876 24.0501 12.0406C24.1233 11.2607 24.3752 10.5049 24.4498 9.72651C24.4772 9.43656 24.4805 9.14515 24.4834 8.85375C24.4856 8.63985 24.4878 8.42377 24.4432 8.21426C24.3935 7.98245 24.2885 7.76636 24.1799 7.55612C23.8797 6.97171 23.5462 6.40502 23.181 5.85886C22.9972 5.58391 22.8055 5.31444 22.6059 5.05045C22.5047 4.91663 22.4015 4.78427 22.2962 4.65338C22.1942 4.5265 22.1499 4.41645 21.988 4.4925C21.6819 4.63583 21.3748 4.91736 21.1521 5.16782Z" fill="#828282"/>
<path d="M21.5324 11.3792C21.3705 11.385 21.2084 11.3799 21.0472 11.3638C20.9276 11.3521 20.8055 11.3346 20.6889 11.3638C20.6381 11.3766 20.5907 11.3999 20.5496 11.4322C20.5343 11.4457 20.5234 11.4635 20.518 11.4832C20.5127 11.5029 20.5132 11.5237 20.5196 11.5431C20.5259 11.5625 20.5377 11.5796 20.5536 11.5924C20.5696 11.6052 20.5888 11.613 20.6091 11.615L20.7342 11.626C20.8135 11.6329 20.8962 11.641 20.958 11.6991C20.9833 11.7219 20.9995 11.7533 21.0033 11.7872C21.011 11.8724 20.9371 11.9188 20.8709 11.9543C20.7769 11.9985 20.6899 12.0564 20.6128 12.1261C20.5525 12.1844 20.5145 12.2621 20.5057 12.3455C20.5054 12.353 20.5071 12.3603 20.5105 12.3669C20.514 12.3735 20.5192 12.3791 20.5255 12.383C20.5318 12.387 20.539 12.3892 20.5464 12.3895C20.5539 12.3898 20.5612 12.3881 20.5678 12.3846C20.7141 12.3115 20.8095 12.0947 20.97 12.1309C20.824 12.1771 20.699 12.2733 20.6168 12.4026C20.5966 12.4334 20.5873 12.4702 20.5906 12.507C20.5939 12.5438 20.6095 12.5784 20.6349 12.6052C20.6603 12.632 20.694 12.6494 20.7305 12.6546C20.7671 12.6599 20.8043 12.6526 20.8362 12.634C20.86 12.6201 20.8829 12.6048 20.9049 12.5883C21.0137 12.5003 21.1111 12.3991 21.1949 12.287C21.0779 12.5338 20.9594 12.8227 21.094 13.068C21.1007 13.0815 21.1112 13.0928 21.1241 13.1004C21.1371 13.1081 21.152 13.1118 21.1671 13.1112C21.2095 13.1068 21.2219 13.0669 21.2289 13.0318C21.2508 12.9188 21.2563 12.7996 21.3119 12.6991C21.4406 12.4658 21.7579 12.4431 21.9996 12.3294C22.2896 12.1949 22.4881 11.9053 22.5682 11.596C22.5962 11.5058 22.6011 11.41 22.5824 11.3174C22.5287 11.1093 22.272 11.0614 22.1071 11.162C21.9049 11.2903 21.7876 11.3711 21.5324 11.3792Z" fill="#F2F2F2"/>
<path opacity="0.1" d="M21.2756 7.28666C21.5316 7.68191 21.9758 7.90458 22.3568 8.18209C22.4498 8.24263 22.5308 8.31972 22.5959 8.40952C22.6921 8.55796 22.7056 8.74663 22.6859 8.9214C22.661 9.15211 22.5868 9.37405 22.5133 9.59416L22.3535 10.0713C22.2522 10.3741 22.1477 10.683 21.955 10.9375C21.9056 11.0022 21.8482 11.0713 21.8504 11.1525C21.8547 11.1994 21.8708 11.2444 21.8972 11.2834C21.9589 11.384 22.0401 11.4712 22.1362 11.5398C22.2322 11.6084 22.3411 11.657 22.4563 11.6826C22.5252 11.7002 22.5975 11.7002 22.6665 11.6826C22.7652 11.6534 22.8394 11.573 22.9082 11.4969C23.2373 11.1338 23.5663 10.7656 23.804 10.3397C24.0362 9.92396 24.1751 9.46217 24.3031 9.00476C24.3558 8.83638 24.3925 8.6634 24.4128 8.48813C24.4398 8.15906 24.3535 7.82999 24.2124 7.53273C24.0713 7.23547 23.8771 6.96637 23.6771 6.70494C23.4884 6.44816 23.2786 6.20748 23.05 5.98538C22.6522 5.61353 22.1656 5.39488 21.6332 5.60585C21.2573 5.75503 21.1166 6.06618 21.0829 6.46472C21.0544 6.75247 21.1222 7.04155 21.2756 7.28666Z" fill="black"/>
<path d="M21.4087 7.18648C21.6647 7.58172 22.1093 7.80439 22.4899 8.08191C22.5825 8.14304 22.6632 8.22061 22.7279 8.31079C22.8241 8.45924 22.8376 8.64754 22.8179 8.82268C22.7927 9.05339 22.7188 9.27533 22.6449 9.49544L22.4851 9.97076C22.3839 10.2735 22.2793 10.5821 22.0866 10.8369C22.0376 10.9017 21.9802 10.9704 21.9824 11.0519C21.9864 11.0988 22.0026 11.1437 22.0292 11.1825C22.0908 11.2831 22.172 11.3704 22.2679 11.439C22.3639 11.5077 22.4727 11.5563 22.5879 11.5821C22.657 11.5996 22.7294 11.5996 22.7985 11.5821C22.8972 11.5532 22.9711 11.4724 23.0402 11.3967C23.3693 11.0333 23.6983 10.6655 23.936 10.2395C24.1682 9.82378 24.3071 9.36198 24.4351 8.90421C24.4879 8.73599 24.5247 8.56312 24.5448 8.38794C24.5718 8.05887 24.4856 7.7298 24.3448 7.43218C24.204 7.13456 24.0095 6.86582 23.8095 6.60439C23.6201 6.34895 23.4098 6.10962 23.181 5.88885C22.7835 5.51737 22.2968 5.29835 21.7645 5.50969C21.3882 5.65887 21.2478 5.96965 21.2138 6.36856C21.187 6.65522 21.2555 6.94272 21.4087 7.18648Z" fill="#828282"/>
<path d="M29.4936 20.3013C29.4939 20.3966 29.4841 20.4917 29.4644 20.585C29.4607 20.6026 29.4567 20.6216 29.4527 20.6366C29.3488 21.053 29.056 21.3576 28.7064 21.377C28.6947 21.377 28.683 21.377 28.6698 21.377C28.3002 21.377 27.9876 21.0581 27.8845 20.619C27.8815 20.6073 27.879 20.5956 27.8764 20.5825C27.8567 20.4892 27.8469 20.3941 27.8472 20.2987C27.8472 19.7038 28.2154 19.2219 28.6698 19.2219C29.1243 19.2219 29.4936 19.7075 29.4936 20.3013Z" fill="#4F4F4F" fill-opacity="0.76"/>
<path opacity="0.1" d="M29.4936 20.3013C29.4939 20.3966 29.4841 20.4917 29.4644 20.585C29.4607 20.6026 29.4567 20.6216 29.4527 20.6366C29.4402 20.6366 29.4282 20.6366 29.4161 20.6366C29.3256 20.6317 29.2356 20.6195 29.147 20.6C29.0685 20.6243 28.9884 20.6426 28.9071 20.6548C28.8449 20.6642 28.7821 20.6701 28.7192 20.6724H28.6556C28.5803 20.6724 28.505 20.6674 28.4304 20.6574C28.3096 20.6413 28.1911 20.6119 28.0768 20.5697C28.0142 20.5905 27.9505 20.6076 27.8859 20.6208C27.883 20.6091 27.8805 20.5974 27.8779 20.5843C27.8582 20.491 27.8484 20.3959 27.8486 20.3005C27.8486 19.7057 28.2168 19.2238 28.6713 19.2238C29.1258 19.2238 29.4936 19.7075 29.4936 20.3013Z" fill="black"/>
<path d="M31.2487 18.2954C31.249 18.0336 31.1876 17.7755 31.0695 17.5419L30.102 17.8428L30.9514 17.3433C30.8089 17.1376 30.6221 16.9665 30.4046 16.8425C30.1872 16.7186 29.9447 16.6451 29.6951 16.6274C29.6554 16.5671 29.6118 16.5095 29.5646 16.4548L28.1751 16.8874L29.3148 16.2172C29.0968 16.0499 28.8409 15.9389 28.5698 15.894C28.2987 15.8491 28.0207 15.8718 27.7604 15.96C27.5001 16.0481 27.2655 16.1991 27.0775 16.3995C26.8895 16.5999 26.7537 16.8436 26.6823 17.109L27.8724 18.479L26.5814 17.5452C26.2543 17.7771 26.0215 18.1188 25.9253 18.5081C25.8291 18.8973 25.876 19.3082 26.0573 19.6658C26.2387 20.0233 26.5425 20.3039 26.9134 20.4562C27.2843 20.6086 27.6975 20.6226 28.0779 20.4958C28.4219 20.6223 28.7979 20.6327 29.1485 20.5254C29.3928 20.5792 29.6461 20.5775 29.8898 20.5205C30.1334 20.4634 30.3611 20.3525 30.5563 20.1959C30.7514 20.0392 30.9089 19.8408 31.0172 19.6152C31.1255 19.3897 31.1818 19.1427 31.1821 18.8925C31.1821 18.8559 31.1821 18.8194 31.1785 18.7828C31.2258 18.6247 31.2495 18.4605 31.2487 18.2954Z" fill="#828282"/>
<path opacity="0.1" d="M31.2198 18.6055C30.7088 18.5087 30.1849 18.502 29.6717 18.5858C29.0907 18.6819 28.4969 18.8933 27.9287 18.739C27.5952 18.6483 27.3071 18.4384 26.9813 18.3218C26.667 18.2121 26.3284 18.1918 26.0033 18.2633C25.8794 18.5597 25.8434 18.8855 25.8997 19.2018C25.9561 19.5181 26.1022 19.8115 26.3208 20.0469C26.5394 20.2824 26.8212 20.4499 27.1324 20.5295C27.4437 20.6091 27.7713 20.5974 28.0761 20.4958C28.4201 20.6223 28.7961 20.6327 29.1466 20.5255C29.391 20.5792 29.6443 20.5776 29.8879 20.5205C30.1316 20.4635 30.3593 20.3526 30.5544 20.1959C30.7495 20.0392 30.907 19.8408 31.0153 19.6153C31.1236 19.3897 31.18 19.1427 31.1803 18.8925C31.1803 18.856 31.1803 18.8194 31.1766 18.7828C31.1943 18.7246 31.2087 18.6654 31.2198 18.6055Z" fill="black"/>
</g>
<defs>
<clipPath id="clip0_131_248">
<rect width="40" height="27.7879" fill="white"/>
</clipPath>
</defs>
</svg>
