<svg width="32" height="32" viewBox="0 0 32 32" fill="none" xmlns="http://www.w3.org/2000/svg">
<path d="M31 31.36H0.999997C0.800997 31.36 0.639997 31.199 0.639997 31V28C0.639997 27.801 0.800997 27.64 0.999997 27.64H2.64V25C2.64 24.801 2.801 24.64 3 24.64H29C29.199 24.64 29.36 24.801 29.36 25V27.64H31C31.199 27.64 31.36 27.801 31.36 28V31C31.36 31.199 31.199 31.36 31 31.36ZM1.36 30.64H30.64V28.36H1.36V30.64ZM3.36 27.64H28.64V25.36H3.36V27.64ZM27 22.36H23C22.801 22.36 22.64 22.199 22.64 22V16C22.64 15.801 22.801 15.64 23 15.64H27C27.199 15.64 27.36 15.801 27.36 16V22C27.36 22.199 27.199 22.36 27 22.36ZM23.36 21.64H26.639V16.36H23.36V21.64ZM18 22.36H14C13.801 22.36 13.64 22.199 13.64 22V16C13.64 15.801 13.801 15.64 14 15.64H18C18.199 15.64 18.36 15.801 18.36 16V22C18.36 22.199 18.199 22.36 18 22.36ZM14.36 21.64H17.64V16.36H14.36V21.64ZM9 22.36H5C4.801 22.36 4.64 22.199 4.64 22V16C4.64 15.801 4.801 15.64 5 15.64H9C9.199 15.64 9.36 15.801 9.36 16V22C9.36 22.199 9.199 22.36 9 22.36ZM5.36 21.64H8.64V16.36H5.36V21.64ZM29 13.36H3V12.64H29V13.36ZM31 10.36H0.999997C0.837997 10.36 0.695997 10.252 0.652997 10.096C0.609997 9.94 0.675997 9.774 0.814997 9.691L15.815 0.690999C15.928 0.622999 16.072 0.622999 16.185 0.690999L31.185 9.691C31.324 9.774 31.389 9.94 31.346 10.096C31.304 10.252 31.162 10.36 31 10.36ZM2.3 9.64H29.7L16 1.42L2.3 9.64ZM16 7.86C14.699 7.86 13.64 6.801 13.64 5.5C13.64 4.199 14.699 3.14 16 3.14C17.302 3.14 18.36 4.199 18.36 5.5C18.36 6.801 17.302 7.86 16 7.86ZM16 3.86C15.096 3.86 14.36 4.596 14.36 5.5C14.36 6.404 15.096 7.14 16 7.14C16.904 7.14 17.64 6.404 17.64 5.5C17.64 4.596 16.904 3.86 16 3.86Z" fill="#828282"/>
</svg>
