<svg width="27" height="26" viewBox="0 0 27 26" fill="none" xmlns="http://www.w3.org/2000/svg">
<path d="M25.3417 20.8533C24.4011 19.811 23.1339 19.1198 21.7483 18.8933C20.8733 18.66 19.975 18.4617 19.0767 18.31C18.6683 18.24 18.26 18.1817 17.8517 18.1233C17.6183 18.1 17.3733 18.065 17.14 18.0417C17.1386 17.6093 17.1895 17.1784 17.2917 16.7583C17.3804 16.2914 17.5253 15.837 17.7233 15.405C17.954 14.8995 18.2355 14.4187 18.5633 13.97C19.6762 12.364 20.2632 10.4521 20.2433 8.49833C20.2433 3.925 17.2217 0.203331 13.5 0.203331C9.77832 0.203331 6.75666 3.925 6.75666 8.49833C6.73679 10.4521 7.32379 12.364 8.43666 13.97C8.76451 14.4187 9.04595 14.8995 9.27666 15.405C9.47464 15.837 9.61959 16.2914 9.70832 16.7583C9.81049 17.1784 9.86141 17.6093 9.85999 18.0417C9.62666 18.065 9.38166 18.1 9.14832 18.1233C8.73999 18.1817 8.33166 18.24 7.92332 18.31C7.02499 18.4617 6.12666 18.66 5.25166 18.8933C3.8661 19.1198 2.59886 19.811 1.65832 20.8533C1.01754 21.673 0.668561 22.683 0.666656 23.7233V24.1667C0.666656 24.4761 0.789573 24.7728 1.00837 24.9916C1.22716 25.2104 1.5239 25.3333 1.83332 25.3333C2.14274 25.3333 2.43949 25.2104 2.65828 24.9916C2.87707 24.7728 2.99999 24.4761 2.99999 24.1667V23.7233C2.99876 23.2246 3.15803 22.7386 3.45426 22.3373C3.7505 21.9361 4.16797 21.6407 4.64499 21.495C4.66629 21.4821 4.69021 21.4741 4.71499 21.4717C4.99499 21.3783 5.28666 21.2967 5.56666 21.2267C6.41832 21.0633 7.25832 20.9117 8.10999 20.76C8.46209 21.9159 9.17657 22.9279 10.1479 23.6466C11.1193 24.3654 12.296 24.7527 13.5043 24.7513C14.7126 24.75 15.8885 24.3602 16.8583 23.6394C17.8281 22.9186 18.5404 21.905 18.89 20.7483C19.2867 20.83 19.6717 20.9 20.0567 20.97C20.5117 21.0517 20.9783 21.145 21.4333 21.2267C21.7133 21.2967 22.005 21.3783 22.285 21.4717C22.3098 21.4741 22.3337 21.4821 22.355 21.495C22.832 21.6407 23.2495 21.9361 23.5457 22.3373C23.842 22.7386 24.0012 23.2246 24 23.7233V24.1667C24 24.4761 24.1229 24.7728 24.3417 24.9916C24.5605 25.2104 24.8572 25.3333 25.1667 25.3333C25.4761 25.3333 25.7728 25.2104 25.9916 24.9916C26.2104 24.7728 26.3333 24.4761 26.3333 24.1667V23.7233C26.3314 22.683 25.9824 21.673 25.3417 20.8533ZM13.5 23.5833C12.5643 23.5823 11.6525 23.288 10.8929 22.7418C10.1332 22.1956 9.56386 21.425 9.26499 20.5383C9.47499 20.4917 9.68499 20.445 9.90666 20.41C10.2458 20.3761 10.5814 20.3136 10.91 20.2233C11.1752 20.1235 11.4157 19.9676 11.615 19.7663C11.8144 19.5649 11.9679 19.3228 12.065 19.0567C12.149 18.8409 12.1925 18.6115 12.1933 18.38V18.03C12.1879 17.0137 12.0023 16.0064 11.645 15.055C11.3256 14.1792 10.8816 13.3541 10.3267 12.605C9.50374 11.395 9.07208 9.96154 9.08999 8.49833C9.08999 5.20833 11.0617 2.53666 13.5 2.53666C15.9383 2.53666 17.91 5.20833 17.91 8.49833C17.9295 9.96351 17.4933 11.3985 16.6617 12.605C16.343 13.0391 16.062 13.4997 15.8217 13.9817C15.179 15.2361 14.8319 16.6208 14.8067 18.03V18.38C14.8075 18.6115 14.851 18.8409 14.935 19.0567C15.0741 19.4316 15.3219 19.7566 15.6467 19.99C16.2945 20.3228 17.0072 20.51 17.735 20.5383C17.4361 21.425 16.8668 22.1956 16.1071 22.7418C15.3474 23.288 14.4356 23.5823 13.5 23.5833Z" fill="#BDBDBD"/>
</svg>
