<svg width="35" height="35" viewBox="0 0 35 35" fill="none" xmlns="http://www.w3.org/2000/svg">
<path d="M11.375 24.0625C11.2443 24.0625 11.1136 24.0864 10.9889 24.137C10.2802 24.4248 9.53477 24.6094 8.75001 24.6094C7.96524 24.6094 7.21985 24.4248 6.51055 24.137C6.38587 24.0864 6.25571 24.0625 6.12501 24.0625C2.7311 24.0625 -0.0180463 27.5133 6.08539e-07 31.7611C0.00765687 33.5563 1.18836 35 2.625 35H14.875C16.3117 35 17.4924 33.5563 17.5 31.7611C17.5181 27.5133 14.7689 24.0625 11.375 24.0625ZM8.75001 21.875C11.6495 21.875 14 18.9369 14 15.3125C14 11.6881 11.6495 8.75 8.75001 8.75C5.85047 8.75 3.5 11.6881 3.5 15.3125C3.5 18.9369 5.85047 21.875 8.75001 21.875ZM32.375 0H11.375C9.92743 0 8.75001 1.521 8.75001 3.38994V6.5625C10.0308 6.5625 11.2164 7.02598 12.25 7.7793V4.375H31.5V24.0625H28V19.6875H21V24.0625H16.8306C17.8752 25.2034 18.6419 26.7101 19.0012 28.4375H32.375C33.8226 28.4375 35 26.9165 35 25.0476V3.38994C35 1.521 33.8226 0 32.375 0V0Z" fill="#BDBDBD"/>
</svg>
