<svg width="35" height="35" viewBox="0 0 35 35" fill="none" xmlns="http://www.w3.org/2000/svg">
<path d="M31.7188 0.820195H3.28125C2.63602 0.813628 2.01454 1.06329 1.55318 1.51441C1.09181 1.96552 0.828245 2.58123 0.820312 3.22644V31.7788C0.82968 32.423 1.09388 33.0374 1.55509 33.4873C2.01629 33.9372 2.63696 34.1861 3.28125 34.1796H31.7188C32.364 34.1847 32.9851 33.9342 33.4462 33.4828C33.9073 33.0314 34.171 32.4158 34.1797 31.7706V3.21824C34.1682 2.57492 33.9032 1.96214 33.4424 1.5131C32.9816 1.06406 32.3622 0.815048 31.7188 0.820195Z" fill="#828282"/>
<path d="M5.75859 13.3247H10.7105V29.2579H5.75859V13.3247ZM8.23594 5.39502C8.8039 5.39502 9.35911 5.56348 9.83132 5.87908C10.3035 6.19468 10.6715 6.64324 10.8887 7.16803C11.106 7.69281 11.1627 8.27023 11.0517 8.82724C10.9407 9.38425 10.6669 9.89583 10.2651 10.2973C9.86334 10.6987 9.3515 10.9719 8.79438 11.0824C8.23727 11.1928 7.6599 11.1356 7.13532 10.9179C6.61075 10.7001 6.16253 10.3317 5.84738 9.85922C5.53223 9.38671 5.3643 8.83134 5.36484 8.26338C5.36557 7.50239 5.66838 6.77282 6.20673 6.23498C6.74509 5.69713 7.47495 5.39502 8.23594 5.39502Z" fill="white"/>
<path d="M13.8168 13.3248H18.5637V15.5123H18.6293C19.291 14.2599 20.9043 12.9392 23.3133 12.9392C28.3281 12.9283 29.2578 16.2287 29.2578 20.508V29.258H24.3059V21.506C24.3059 19.6603 24.273 17.2842 21.7328 17.2842C19.1926 17.2842 18.7605 19.2967 18.7605 21.3857V29.258H13.8168V13.3248Z" fill="white"/>
</svg>
