<svg width="35" height="35" viewBox="0 0 35 35" fill="none" xmlns="http://www.w3.org/2000/svg">
<path d="M34.9897 0H0.0102539C0.00459083 0 0 0.00459083 0 0.0102539V34.9897C0 34.9954 0.00459083 35 0.0102539 35H34.9897C34.9954 35 35 34.9954 35 34.9897V0.0102539C35 0.00459083 34.9954 0 34.9897 0Z" fill="#828282"/>
<path d="M29.873 10.3907C29.0626 10.9282 28.1112 11.2137 27.1387 11.211C28.1784 10.5985 28.9569 9.62541 29.3262 8.47661C28.4643 9.20519 27.3783 9.61547 26.25 9.63872C25.5061 8.87681 24.5352 8.37671 23.4829 8.21346C22.4306 8.05022 21.3538 8.23263 20.414 8.73334C19.4742 9.23404 18.7222 10.026 18.2707 10.9904C17.8193 11.9548 17.6927 13.0397 17.9102 14.0821C15.9956 13.981 14.1238 13.4784 12.4161 12.6069C10.7085 11.7354 9.2032 10.5145 7.99805 9.02349C7.40832 10.0906 7.23565 11.3386 7.51349 12.5258C7.79133 13.7129 8.49991 14.7547 9.50195 15.4493C8.74571 15.46 7.99717 15.2962 7.31445 14.9708C7.33284 16.0719 7.72 17.1351 8.41401 17.9902C9.10802 18.8453 10.0688 19.443 11.1426 19.6875C10.4278 19.8742 9.68013 19.8976 8.95508 19.7559C9.26786 20.7314 9.87723 21.585 10.6982 22.1977C11.5192 22.8104 12.511 23.1517 13.5352 23.1739C11.3721 24.4861 8.88734 25.1723 6.35742 25.1563C8.47624 26.5396 10.9374 27.3077 13.4669 27.3751C15.9963 27.4426 18.4949 26.8067 20.6845 25.5384C22.874 24.27 24.6686 22.4189 25.8684 20.1911C27.0683 17.9632 27.6263 15.4461 27.4805 12.92C28.3825 12.1823 29.1866 11.3323 29.873 10.3907Z" fill="white"/>
</svg>
