<svg width="35" height="35" viewBox="0 0 35 35" fill="none" xmlns="http://www.w3.org/2000/svg">
<path d="M30.0781 1.64062H4.92188C3.10969 1.64062 1.64062 3.10969 1.64062 4.92188V30.0781C1.64062 31.8903 3.10969 33.3594 4.92188 33.3594H30.0781C31.8903 33.3594 33.3594 31.8903 33.3594 30.0781V4.92188C33.3594 3.10969 31.8903 1.64062 30.0781 1.64062Z" fill="#828282"/>
<path fill-rule="evenodd" clip-rule="evenodd" d="M22.8079 22.9688H12.739C11.4474 22.9688 10.3906 21.8891 10.3906 20.5696V14.9773C10.3906 13.6578 11.4474 12.5781 12.739 12.5781H22.8079C24.0995 12.5781 25.1562 13.6578 25.1562 14.9773V20.5696C25.1562 21.8891 24.0995 22.9688 22.8079 22.9688ZM16.4326 15.764V20.2016L20.4531 17.9105L16.4326 15.764Z" fill="white"/>
</svg>
