<svg width="35" height="35" viewBox="0 0 35 35" fill="none" xmlns="http://www.w3.org/2000/svg">
<path d="M34.9897 0H0.0102539C0.00459083 0 0 0.00459083 0 0.0102539V34.9897C0 34.9954 0.00459083 35 0.0102539 35H34.9897C34.9954 35 35 34.9954 35 34.9897V0.0102539C35 0.00459083 34.9954 0 34.9897 0Z" fill="#828282"/>
<path d="M24.3086 22.5586L25.0879 17.5H20.2344V14.2188C20.2344 12.8379 20.9111 11.4844 23.085 11.4844H25.293V7.17773C25.293 7.17773 23.29 6.83594 21.376 6.83594C17.377 6.83594 14.7656 9.25586 14.7656 13.6445V17.5H10.3223V22.5586H14.7656V35H20.2344V22.5586H24.3086Z" fill="white"/>
</svg>
