<svg width="20" height="20" viewBox="0 0 20 20" fill="none" xmlns="http://www.w3.org/2000/svg">
<path fill-rule="evenodd" clip-rule="evenodd" d="M2.99997 5C2.99997 4.44772 3.44769 4 3.99997 4H16C16.5523 4 17 4.44772 17 5C17 5.55228 16.5523 6 16 6H3.99997C3.44769 6 2.99997 5.55228 2.99997 5Z" fill="#00304A"/>
<path fill-rule="evenodd" clip-rule="evenodd" d="M2.99997 10C2.99997 9.44772 3.44769 9 3.99997 9H16C16.5523 9 17 9.44772 17 10C17 10.5523 16.5523 11 16 11H3.99997C3.44769 11 2.99997 10.5523 2.99997 10Z" fill="#00304A"/>
<path fill-rule="evenodd" clip-rule="evenodd" d="M2.99997 15C2.99997 14.4477 3.44769 14 3.99997 14H9.99997C10.5523 14 11 14.4477 11 15C11 15.5523 10.5523 16 9.99997 16H3.99997C3.44769 16 2.99997 15.5523 2.99997 15Z" fill="#00304A"/>
</svg>
