<svg width="24" height="22" viewBox="0 0 24 22" fill="none" xmlns="http://www.w3.org/2000/svg">
<path d="M22.6821 1.42044e-06H6.51972C6.38726 -0.000109745 6.25608 0.0258688 6.13367 0.0764538C6.01126 0.127039 5.90001 0.20124 5.80627 0.29482C5.71253 0.3884 5.63814 0.499526 5.58735 0.621854C5.53656 0.744183 5.51036 0.875317 5.51025 1.00777V5.5L14.8763 8.25L23.6924 5.5V1.00777C23.6923 0.875246 23.6661 0.744042 23.6152 0.621659C23.5644 0.499275 23.4899 0.388111 23.3961 0.29452C23.3023 0.200929 23.1909 0.126746 23.0684 0.0762107C22.9459 0.0256755 22.8146 -0.000220983 22.6821 1.42044e-06Z" fill="#41A5EE"/>
<path d="M23.6924 5.5H5.51025V11L14.8763 12.65L23.6924 11V5.5Z" fill="#2B7CD3"/>
<path d="M5.51025 11V16.5L14.3255 17.6L23.6924 16.5V11H5.51025Z" fill="#185ABD"/>
<path d="M6.51972 22H22.6812C22.8138 22.0003 22.9452 21.9745 23.0678 21.924C23.1904 21.8735 23.3019 21.7994 23.3958 21.7058C23.4897 21.6122 23.5642 21.501 23.6151 21.3785C23.666 21.2561 23.6923 21.1248 23.6924 20.9922V16.5H5.51025V20.9922C5.51036 21.1247 5.53656 21.2558 5.58735 21.3781C5.63814 21.5005 5.71253 21.6116 5.80627 21.7052C5.90001 21.7988 6.01126 21.873 6.13367 21.9235C6.25608 21.9741 6.38726 22.0001 6.51972 22Z" fill="#103F91"/>
<path opacity="0.1" d="M12.2135 4.3999H5.51025V18.1499H12.2135C12.4806 18.1486 12.7364 18.042 12.9255 17.8534C13.1146 17.6648 13.2218 17.4092 13.2238 17.1421V5.40767C13.2218 5.14057 13.1146 4.88502 12.9255 4.69639C12.7364 4.50775 12.4806 4.40123 12.2135 4.3999Z" fill="black"/>
<path opacity="0.2" d="M11.6626 4.94995H5.51025V18.6999H11.6626C11.9297 18.6986 12.1856 18.5921 12.3747 18.4035C12.5638 18.2148 12.6709 17.9593 12.6729 17.6922V5.95772C12.6709 5.69062 12.5638 5.43507 12.3747 5.24644C12.1856 5.0578 11.9297 4.95128 11.6626 4.94995Z" fill="black"/>
<path opacity="0.2" d="M11.6626 4.94995H5.51025V17.5999H11.6626C11.9297 17.5986 12.1856 17.4921 12.3747 17.3035C12.5638 17.1148 12.6709 16.8593 12.6729 16.5922V5.95772C12.6709 5.69062 12.5638 5.43507 12.3747 5.24644C12.1856 5.0578 11.9297 4.95128 11.6626 4.94995Z" fill="black"/>
<path opacity="0.2" d="M11.1118 4.94995H5.51025V17.5999H11.1118C11.3789 17.5986 11.6347 17.4921 11.8238 17.3035C12.0129 17.1148 12.1201 16.8593 12.1221 16.5922V5.95772C12.1201 5.69062 12.0129 5.43507 11.8238 5.24644C11.6347 5.0578 11.3789 4.95128 11.1118 4.94995Z" fill="black"/>
<path d="M1.01031 4.94995H11.1117C11.3793 4.94973 11.636 5.05575 11.8254 5.24472C12.0149 5.43369 12.1216 5.69014 12.122 5.95772V16.0422C12.1216 16.3098 12.0149 16.5662 11.8254 16.7552C11.636 16.9442 11.3793 17.0502 11.1117 17.0499H1.01031C0.877783 17.0502 0.746514 17.0243 0.624003 16.9737C0.501492 16.9232 0.390141 16.849 0.296314 16.7554C0.202487 16.6618 0.128024 16.5507 0.0771808 16.4283C0.0263376 16.3059 0.000110992 16.1747 0 16.0422V5.95772C0.000110992 5.8252 0.0263376 5.69399 0.0771808 5.57161C0.128024 5.44923 0.202487 5.33806 0.296314 5.24447C0.390141 5.15088 0.501492 5.0767 0.624003 5.02616C0.746514 4.97563 0.877783 4.94973 1.01031 4.94995Z" fill="url(#paint0_linear_1011_1665)"/>
<path d="M4.1461 12.6823C4.16557 12.838 4.1791 12.9733 4.18503 13.0893H4.20872C4.21718 12.9793 4.2358 12.8464 4.26372 12.6916C4.29164 12.5367 4.31618 12.4056 4.33903 12.2981L5.40095 7.72296H6.7751L7.8751 12.2296C7.93917 12.5083 7.98496 12.791 8.01218 13.0757H8.0308C8.05101 12.7986 8.08916 12.523 8.14503 12.2507L9.02418 7.71704H10.2739L8.73056 14.273H7.26926L6.22257 9.93566C6.1921 9.81043 6.15769 9.6474 6.11933 9.44658C6.08098 9.24576 6.05728 9.09909 6.04826 9.00658H6.03049C6.01864 9.11319 5.99495 9.27143 5.95941 9.48127C5.92387 9.69196 5.89595 9.84681 5.8748 9.94835L4.89072 14.2756H3.40487L1.85303 7.72296H3.12226L4.07926 12.3074C4.10782 12.4312 4.13013 12.5563 4.1461 12.6823Z" fill="white"/>
<defs>
<linearGradient id="paint0_linear_1011_1665" x1="2.11031" y1="4.15795" x2="10.0117" y2="17.842" gradientUnits="userSpaceOnUse">
<stop stop-color="#2368C4"/>
<stop offset="0.5" stop-color="#1A5DBE"/>
<stop offset="1" stop-color="#1146AC"/>
</linearGradient>
</defs>
</svg>
