<svg width="17" height="17" viewBox="0 0 17 17" fill="none" xmlns="http://www.w3.org/2000/svg">
<path d="M11.5003 2.50008C9.01525 0.015036 4.98515 0.015035 2.5001 2.50008C0.0150506 4.98513 0.0150506 9.01523 2.5001 11.5003C4.70153 13.7017 8.11577 13.9502 10.5927 12.2512L13.6909 15.7168C14.2176 16.3083 15.1333 16.3326 15.6925 15.7735L15.7735 15.6925C16.3326 15.1333 16.3083 14.2176 15.7168 13.6909L12.2512 10.5927C13.9529 8.11305 13.7017 4.70151 11.5003 2.50008ZM9.95525 9.95523C8.32376 11.5867 5.67664 11.5867 4.04515 9.95523C2.41366 8.32374 2.41366 5.67662 4.04515 4.04514C5.67664 2.41365 8.32376 2.41365 9.95525 4.04514C11.5894 5.67933 11.5867 8.32374 9.95525 9.95523Z" fill="#ACB1C6"/>
</svg>
