<svg width="40" height="42" viewBox="0 0 40 42" fill="none" xmlns="http://www.w3.org/2000/svg">
<path fill-rule="evenodd" clip-rule="evenodd" d="M3.994 13.74C4.02471 9.37277 5.7701 5.19244 8.854 2.1L6.724 0C4.90991 1.79889 3.46999 3.93921 2.48735 6.29746C1.50471 8.65571 0.998795 11.1852 0.998795 13.74C0.998795 16.2948 1.50471 18.8243 2.48735 21.1825C3.46999 23.5408 4.90991 25.6811 6.724 27.48L8.854 25.38C5.7701 22.2876 4.02471 18.1072 3.994 13.74V13.74ZM7.17401 13.74C7.16626 15.5092 7.51264 17.262 8.19274 18.8953C8.87283 20.5285 9.87289 22.0092 11.134 23.25L13.264 21.12C12.278 20.1713 11.5014 19.0268 10.984 17.76C10.4518 16.4918 10.1777 15.1303 10.1777 13.755C10.1777 12.3797 10.4518 11.0182 10.984 9.75C11.4936 8.47038 12.271 7.31453 13.264 6.36L11.134 4.23C9.8783 5.47487 8.88179 6.95629 8.20208 8.58861C7.52237 10.2209 7.17295 11.9718 7.17401 13.74V13.74ZM30.124 23.37L27.994 21.24C28.984 20.28 29.764 19.128 30.274 17.85C30.8064 16.5819 31.0805 15.2203 31.0805 13.845C31.0805 12.4697 30.8064 11.1081 30.274 9.84C29.7644 8.56038 28.987 7.40453 27.994 6.45L30.124 4.35C31.3783 5.59583 32.3737 7.07748 33.053 8.70962C33.7323 10.3418 34.082 12.0921 34.082 13.86C34.082 15.6279 33.7323 17.3782 33.053 19.0104C32.3737 20.6425 31.3783 22.1242 30.124 23.37V23.37ZM34.204 0L32.074 2.13C33.6142 3.64588 34.8374 5.45307 35.6723 7.4463C36.5072 9.43953 36.9372 11.579 36.9372 13.74C36.9372 15.901 36.5072 18.0405 35.6723 20.0337C34.8374 22.0269 33.6142 23.8341 32.074 25.35L34.204 27.48C36.0181 25.6811 37.458 23.5408 38.4407 21.1825C39.4233 18.8243 39.9292 16.2948 39.9292 13.74C39.9292 11.1852 39.4233 8.65571 38.4407 6.29746C37.458 3.93921 36.0181 1.79889 34.204 0V0ZM24.979 13.29C25.0813 14.3255 24.8215 15.3645 24.244 16.23C23.995 16.4835 23.7239 16.7144 23.434 16.92L33.754 40.11L30.994 41.31L28.684 36.12H12.064L9.75401 41.31L6.994 40.11L17.314 16.92C16.6917 16.2892 16.2667 15.4908 16.0909 14.6224C15.9151 13.754 15.9961 12.8531 16.324 12.03C16.6749 11.2018 17.2585 10.4932 18.004 9.99C18.6503 9.55892 19.3972 9.30252 20.1721 9.24574C20.9469 9.18896 21.7232 9.33375 22.4254 9.666C23.1277 9.99825 23.732 10.5067 24.1795 11.1417C24.627 11.7768 24.9024 12.5169 24.979 13.29V13.29ZM20.194 12.27C19.9096 12.337 19.6497 12.4825 19.444 12.69C19.2828 12.8804 19.1696 13.1068 19.114 13.35C19.0243 13.6331 19.0243 13.9369 19.114 14.22C19.234 14.49 19.42 14.73 19.654 14.91C19.9067 15.0654 20.1973 15.1484 20.494 15.15C20.8894 15.1423 21.2665 14.9818 21.5462 14.7022C21.8258 14.4225 21.9863 14.0454 21.994 13.65C21.9924 13.3533 21.9094 13.0627 21.754 12.81C21.5738 12.5741 21.3363 12.3882 21.064 12.27C20.7809 12.1803 20.4771 12.1803 20.194 12.27V12.27ZM20.884 18.42H20.074L17.464 24.24H23.464L20.884 18.42V18.42ZM27.484 33.24L24.814 27.24H16.174L13.504 33.24H27.484Z" fill="white"/>
</svg>
