<svg width="142" height="39" viewBox="0 0 142 39" fill="none" xmlns="http://www.w3.org/2000/svg">
<path d="M13.8343 12.64C13.8343 14.224 13.5623 15.504 13.0183 16.48C12.4743 17.456 11.6823 18.16 10.6423 18.592C9.61832 19.024 8.37832 19.24 6.92231 19.24C5.25831 19.24 3.92231 18.976 2.91431 18.448C1.90631 17.92 1.17031 17.136 0.706315 16.096C0.242315 15.04 0.0103146 13.744 0.0103146 12.208V1.624C0.0103146 1.336 0.122315 1.192 0.346315 1.192H3.22631C3.45031 1.192 3.56231 1.32 3.56231 1.576V12.736C3.56231 14.096 3.86631 15.088 4.47431 15.712C5.09832 16.336 6.00232 16.648 7.18632 16.648C7.93831 16.648 8.59432 16.52 9.15432 16.264C9.71432 15.992 10.1463 15.56 10.4503 14.968C10.7543 14.376 10.9063 13.608 10.9063 12.664V1.6C10.9063 1.328 11.0183 1.192 11.2423 1.192H13.5223C13.7303 1.192 13.8343 1.32 13.8343 1.576V12.64ZM32.2614 1.192C32.4534 1.192 32.5494 1.304 32.5494 1.528V18.64C32.5494 18.752 32.5094 18.84 32.4294 18.904C32.3654 18.968 32.2694 19 32.1414 19H30.1494C30.0374 19 29.9414 18.992 29.8614 18.976C29.7814 18.944 29.6854 18.864 29.5734 18.736L21.3654 7.072C21.3014 6.976 21.2374 6.936 21.1734 6.952C21.1254 6.968 21.1014 7.016 21.1014 7.096V18.616C21.1174 18.872 20.9814 19 20.6934 19H18.5814C18.2934 19 18.1494 18.872 18.1494 18.616V1.6C18.1494 1.328 18.2774 1.192 18.5334 1.192H20.9334C21.0934 1.192 21.2134 1.216 21.2934 1.264C21.3734 1.296 21.4614 1.376 21.5574 1.504L29.2854 12.64C29.3814 12.768 29.4614 12.824 29.5254 12.808C29.6054 12.776 29.6454 12.696 29.6454 12.568V1.576C29.6454 1.32 29.7734 1.192 30.0294 1.192H32.2614ZM37.0569 1.6C37.0569 1.328 37.1769 1.192 37.4169 1.192H49.0569C49.2649 1.192 49.3689 1.312 49.3689 1.552V3.376C49.3689 3.68 49.2249 3.832 48.9369 3.832H41.0169C40.7449 3.832 40.6089 3.944 40.6089 4.168V8.368C40.6089 8.608 40.7209 8.728 40.9449 8.728H46.4169C46.6569 8.728 46.7769 8.848 46.7769 9.088V11.032C46.7769 11.112 46.7529 11.184 46.7049 11.248C46.6569 11.296 46.5689 11.32 46.4409 11.32H40.9209C40.7129 11.32 40.6089 11.416 40.6089 11.608V16.072C40.6089 16.264 40.6969 16.36 40.8729 16.36H49.2729C49.5289 16.36 49.6569 16.472 49.6569 16.696V18.64C49.6569 18.736 49.6249 18.824 49.5609 18.904C49.4969 18.968 49.3929 19 49.2489 19H37.5129C37.2089 19 37.0569 18.856 37.0569 18.568V1.6ZM59.6734 0.951999C60.5534 0.951999 61.3854 1.088 62.1694 1.36C62.9534 1.616 63.6574 1.984 64.2814 2.464C64.9054 2.928 65.4174 3.472 65.8174 4.096C66.2174 4.72 66.4814 5.392 66.6094 6.112C66.6574 6.336 66.6574 6.48 66.6094 6.544C66.5774 6.608 66.4974 6.648 66.3694 6.664L63.6334 6.856C63.5054 6.856 63.4254 6.832 63.3934 6.784C63.3614 6.72 63.3294 6.632 63.2974 6.52C63.1054 5.624 62.7134 4.896 62.1214 4.336C61.5294 3.76 60.7454 3.472 59.7694 3.472C58.4094 3.472 57.3534 4 56.6014 5.056C55.8494 6.112 55.4734 7.776 55.4734 10.048C55.4734 12.288 55.8334 13.936 56.5534 14.992C57.2894 16.048 58.3854 16.576 59.8414 16.576C60.8334 16.576 61.6814 16.336 62.3854 15.856C63.0894 15.36 63.6654 14.536 64.1134 13.384C64.1614 13.256 64.3054 13.216 64.5454 13.264L66.5854 13.696C66.6494 13.712 66.7054 13.752 66.7534 13.816C66.8174 13.88 66.8334 14.016 66.8014 14.224C66.7054 14.592 66.5374 15 66.2974 15.448C66.0574 15.896 65.7454 16.344 65.3614 16.792C64.9774 17.24 64.5054 17.648 63.9454 18.016C63.4014 18.384 62.7774 18.68 62.0734 18.904C61.3694 19.128 60.5774 19.24 59.6974 19.24C58.0654 19.24 56.6494 18.856 55.4494 18.088C54.2654 17.32 53.3534 16.248 52.7134 14.872C52.0734 13.48 51.7534 11.856 51.7534 10C51.7534 8.128 52.0734 6.52 52.7134 5.176C53.3534 3.832 54.2654 2.792 55.4494 2.056C56.6334 1.32 58.0414 0.951999 59.6734 0.951999ZM89.979 18.424C90.043 18.568 90.043 18.704 89.979 18.832C89.915 18.944 89.811 19 89.667 19H86.739C86.515 19 86.355 18.872 86.259 18.616L83.499 11.608C83.419 11.4 83.203 11.296 82.851 11.296H79.971C79.859 11.296 79.779 11.328 79.731 11.392C79.699 11.44 79.683 11.496 79.683 11.56V18.496C79.683 18.832 79.499 19 79.131 19H76.587C76.411 19 76.291 18.968 76.227 18.904C76.163 18.824 76.131 18.712 76.131 18.568V1.6C76.131 1.328 76.251 1.192 76.491 1.192H83.715C85.763 1.192 87.355 1.608 88.491 2.44C89.643 3.256 90.219 4.44 90.219 5.992C90.219 6.84 90.059 7.584 89.739 8.224C89.419 8.848 89.003 9.368 88.491 9.784C87.979 10.184 87.435 10.488 86.859 10.696C86.715 10.728 86.683 10.832 86.763 11.008L89.979 18.424ZM83.211 8.848C84.299 8.848 85.123 8.632 85.683 8.2C86.259 7.768 86.547 7.12 86.547 6.256C86.547 5.376 86.275 4.72 85.731 4.288C85.187 3.84 84.443 3.616 83.499 3.616H80.115C79.827 3.616 79.683 3.728 79.683 3.952V8.488C79.683 8.728 79.787 8.848 79.995 8.848H83.211ZM100.584 17.68C100.04 18.16 99.4484 18.544 98.8084 18.832C98.1684 19.104 97.4404 19.24 96.6244 19.24C95.3924 19.24 94.4244 18.92 93.7204 18.28C93.0324 17.624 92.6884 16.776 92.6884 15.736C92.6884 14.856 92.9524 14.096 93.4804 13.456C94.0084 12.8 94.7764 12.288 95.7844 11.92C96.7924 11.552 98.0004 11.336 99.4084 11.272L100.608 11.2C100.704 11.184 100.792 11.152 100.872 11.104C100.952 11.056 100.992 10.968 100.992 10.84V10.288C100.992 9.584 100.784 9.04 100.368 8.656C99.9524 8.256 99.3764 8.056 98.6404 8.056C98.0804 8.056 97.5524 8.184 97.0564 8.44C96.5764 8.68 96.1604 9.08 95.8084 9.64C95.7604 9.736 95.7044 9.8 95.6404 9.832C95.5924 9.864 95.4964 9.864 95.3524 9.832L93.3364 9.328C93.2564 9.296 93.1924 9.248 93.1444 9.184C93.1124 9.12 93.1444 8.992 93.2404 8.8C93.6724 7.888 94.3524 7.2 95.2804 6.736C96.2244 6.272 97.3924 6.04 98.7844 6.04C100.016 6.04 101.008 6.208 101.76 6.544C102.528 6.88 103.088 7.352 103.44 7.96C103.792 8.552 103.968 9.256 103.968 10.072V18.52C103.968 18.696 103.936 18.824 103.872 18.904C103.824 18.968 103.72 19 103.56 19H101.52C101.376 19 101.272 18.944 101.208 18.832C101.144 18.72 101.104 18.584 101.088 18.424L101.04 17.704C101.008 17.432 100.856 17.424 100.584 17.68ZM100.992 13.192C100.992 12.904 100.872 12.768 100.632 12.784L99.6484 12.856C99.1364 12.888 98.6404 12.968 98.1604 13.096C97.6964 13.208 97.2804 13.368 96.9124 13.576C96.5604 13.768 96.2724 14.016 96.0484 14.32C95.8404 14.608 95.7364 14.952 95.7364 15.352C95.7364 15.896 95.9284 16.328 96.3124 16.648C96.7124 16.968 97.2484 17.128 97.9204 17.128C98.3524 17.128 98.7524 17.056 99.1204 16.912C99.4884 16.768 99.8084 16.584 100.08 16.36C100.352 16.136 100.568 15.904 100.728 15.664C100.904 15.408 100.992 15.152 100.992 14.896V13.192ZM116.583 19C116.455 19 116.343 18.968 116.247 18.904C116.167 18.84 116.127 18.728 116.127 18.568V17.776C116.127 17.664 116.095 17.6 116.031 17.584C115.967 17.568 115.895 17.6 115.815 17.68C115.575 17.904 115.295 18.136 114.975 18.376C114.655 18.616 114.263 18.824 113.799 19C113.351 19.16 112.815 19.24 112.191 19.24C111.215 19.24 110.343 19 109.575 18.52C108.807 18.04 108.199 17.32 107.751 16.36C107.303 15.4 107.079 14.2 107.079 12.76C107.079 11.416 107.311 10.24 107.775 9.232C108.255 8.224 108.903 7.44 109.719 6.88C110.535 6.32 111.447 6.04 112.455 6.04C113.159 6.04 113.759 6.152 114.255 6.376C114.767 6.6 115.239 6.912 115.671 7.312C115.815 7.408 115.919 7.448 115.983 7.432C116.047 7.4 116.079 7.296 116.079 7.12V1.576C116.079 1.32 116.191 1.192 116.415 1.192H118.839C119.079 1.192 119.199 1.328 119.199 1.6V18.544C119.199 18.704 119.159 18.824 119.079 18.904C119.015 18.968 118.887 19 118.695 19H116.583ZM116.079 9.424C115.663 9.008 115.247 8.688 114.831 8.464C114.431 8.224 113.967 8.104 113.439 8.104C112.831 8.104 112.279 8.272 111.783 8.608C111.303 8.928 110.927 9.432 110.655 10.12C110.383 10.792 110.247 11.656 110.247 12.712C110.247 13.784 110.383 14.656 110.655 15.328C110.927 15.984 111.295 16.464 111.759 16.768C112.239 17.072 112.775 17.224 113.367 17.224C113.879 17.224 114.335 17.104 114.735 16.864C115.151 16.624 115.479 16.32 115.719 15.952C115.959 15.584 116.079 15.216 116.079 14.848V9.424ZM126.074 18.472C126.074 18.664 126.026 18.8 125.93 18.88C125.85 18.96 125.706 19 125.498 19H123.41C123.234 19 123.114 18.968 123.05 18.904C122.986 18.824 122.954 18.712 122.954 18.568V6.688C122.954 6.416 123.074 6.28 123.314 6.28H125.738C125.962 6.28 126.074 6.408 126.074 6.664V18.472ZM126.122 3.928C126.122 4.296 125.93 4.48 125.546 4.48H123.362C123.186 4.48 123.066 4.44 123.002 4.36C122.938 4.28 122.906 4.16 122.906 4V1.648C122.906 1.344 123.034 1.192 123.29 1.192H125.762C126.002 1.192 126.122 1.328 126.122 1.6V3.928ZM135.478 19.24C134.23 19.24 133.134 18.96 132.19 18.4C131.246 17.84 130.502 17.072 129.958 16.096C129.43 15.104 129.166 13.976 129.166 12.712C129.166 11.384 129.438 10.224 129.982 9.232C130.542 8.224 131.294 7.44 132.238 6.88C133.198 6.32 134.286 6.04 135.502 6.04C136.766 6.04 137.87 6.328 138.814 6.904C139.758 7.464 140.494 8.248 141.022 9.256C141.55 10.248 141.814 11.392 141.814 12.688C141.814 13.968 141.542 15.104 140.998 16.096C140.47 17.072 139.734 17.84 138.79 18.4C137.846 18.96 136.742 19.24 135.478 19.24ZM135.502 17.104C136.19 17.104 136.766 16.936 137.23 16.6C137.694 16.248 138.046 15.744 138.286 15.088C138.526 14.416 138.646 13.6 138.646 12.64C138.646 11.664 138.518 10.84 138.262 10.168C138.022 9.496 137.67 8.984 137.206 8.632C136.742 8.28 136.174 8.104 135.502 8.104C134.846 8.104 134.278 8.28 133.798 8.632C133.318 8.984 132.95 9.496 132.694 10.168C132.454 10.84 132.334 11.664 132.334 12.64C132.334 13.6 132.454 14.416 132.694 15.088C132.95 15.744 133.318 16.248 133.798 16.6C134.278 16.936 134.846 17.104 135.502 17.104ZM27.671 36.14C26.747 36.14 25.9397 35.9253 25.249 35.496C24.5677 35.0573 24.0404 34.4413 23.667 33.648C23.2937 32.8547 23.107 31.9213 23.107 30.848C23.107 29.7373 23.303 28.7807 23.695 27.978C24.087 27.1753 24.633 26.5593 25.333 26.13C26.033 25.6913 26.8497 25.472 27.783 25.472C28.5017 25.472 29.1504 25.612 29.729 25.892C30.3077 26.172 30.779 26.5313 31.143 26.97C31.5164 27.4087 31.745 27.88 31.829 28.384C31.857 28.5053 31.8617 28.5847 31.843 28.622C31.8244 28.6593 31.773 28.6873 31.689 28.706L30.135 28.944C30.0604 28.944 30.009 28.93 29.981 28.902C29.9624 28.874 29.9437 28.8227 29.925 28.748C29.869 28.4213 29.743 28.1227 29.547 27.852C29.3604 27.5813 29.113 27.3667 28.805 27.208C28.497 27.04 28.1424 26.956 27.741 26.956C27.2184 26.956 26.7704 27.0913 26.397 27.362C26.033 27.6327 25.753 28.048 25.557 28.608C25.3704 29.168 25.277 29.8867 25.277 30.764C25.277 31.688 25.375 32.4347 25.571 33.004C25.767 33.5733 26.0564 33.9933 26.439 34.264C26.8217 34.5253 27.2744 34.656 27.797 34.656C28.1517 34.656 28.4597 34.6 28.721 34.488C28.9917 34.376 29.2204 34.2313 29.407 34.054C29.5937 33.8673 29.7384 33.662 29.841 33.438C29.953 33.2047 30.0277 32.9713 30.065 32.738L30.079 32.178C30.1164 32.0567 30.0744 31.996 29.953 31.996H28.049C27.9837 31.996 27.9324 31.982 27.895 31.954C27.867 31.926 27.853 31.87 27.853 31.786V30.89C27.853 30.778 27.9184 30.722 28.049 30.722L31.689 30.736C31.801 30.736 31.885 30.764 31.941 30.82C31.997 30.8667 32.025 30.932 32.025 31.016V35.804C32.025 35.8693 32.0064 35.9207 31.969 35.958C31.941 35.986 31.899 36 31.843 36H31.437C31.3624 36 31.297 35.986 31.241 35.958C31.1944 35.93 31.1477 35.874 31.101 35.79L30.793 34.684C30.7744 34.6467 30.751 34.628 30.723 34.628C30.7044 34.628 30.681 34.6513 30.653 34.698C30.4757 34.9313 30.2564 35.16 29.995 35.384C29.743 35.608 29.4257 35.79 29.043 35.93C28.6697 36.07 28.2124 36.14 27.671 36.14ZM39.068 31.716C39.068 31.324 38.9747 30.9787 38.788 30.68C38.6107 30.3813 38.368 30.148 38.06 29.98C37.752 29.8027 37.4067 29.714 37.024 29.714C36.6507 29.714 36.3054 29.7933 35.988 29.952C35.6707 30.1107 35.372 30.3673 35.092 30.722C35.0547 30.7593 35.022 30.7827 34.994 30.792C34.966 30.792 34.9194 30.778 34.854 30.75L34 30.372C33.8787 30.316 33.8647 30.232 33.958 30.12C34.2474 29.7 34.5507 29.3687 34.868 29.126C35.1854 28.8833 35.5354 28.7107 35.918 28.608C36.31 28.496 36.7487 28.44 37.234 28.44C37.9527 28.44 38.592 28.5987 39.152 28.916C39.712 29.2333 40.1507 29.672 40.468 30.232C40.7854 30.792 40.944 31.4453 40.944 32.192C40.944 32.9947 40.776 33.6947 40.44 34.292C40.1134 34.88 39.67 35.3373 39.11 35.664C38.5594 35.9813 37.9434 36.14 37.262 36.14C36.5714 36.14 35.96 35.986 35.428 35.678C34.896 35.37 34.476 34.9267 34.168 34.348C33.8694 33.7693 33.72 33.074 33.72 32.262C33.72 32.1687 33.7294 32.094 33.748 32.038C33.7667 31.9727 33.832 31.94 33.944 31.94H38.914C38.97 31.94 39.0074 31.9213 39.026 31.884C39.054 31.8373 39.068 31.7813 39.068 31.716ZM35.75 32.976C35.6567 32.976 35.5914 32.99 35.554 33.018C35.526 33.0367 35.512 33.088 35.512 33.172C35.512 33.4613 35.5774 33.746 35.708 34.026C35.8387 34.306 36.0254 34.5393 36.268 34.726C36.52 34.9033 36.8327 34.992 37.206 34.992C37.5794 34.992 37.906 34.9033 38.186 34.726C38.466 34.5393 38.6807 34.292 38.83 33.984C38.9794 33.676 39.0494 33.34 39.04 32.976H35.75ZM43.0018 36C42.8338 36 42.7498 35.916 42.7498 35.748V28.818C42.7498 28.6593 42.8151 28.58 42.9458 28.58H44.3458C44.4671 28.58 44.5278 28.65 44.5278 28.79V29.518C44.5278 29.574 44.5418 29.6113 44.5698 29.63C44.5978 29.6393 44.6351 29.6207 44.6818 29.574C44.9525 29.3407 45.2138 29.14 45.4658 28.972C45.7178 28.804 45.9791 28.6733 46.2498 28.58C46.5205 28.4867 46.8145 28.44 47.1318 28.44C47.8225 28.44 48.3638 28.6407 48.7558 29.042C49.1571 29.434 49.3578 29.9567 49.3578 30.61V35.706C49.3578 35.902 49.2598 36 49.0638 36H47.7758C47.6918 36 47.6311 35.9813 47.5938 35.944C47.5565 35.9067 47.5378 35.8413 47.5378 35.748V30.932C47.5378 30.568 47.4398 30.288 47.2438 30.092C47.0478 29.8867 46.7538 29.784 46.3618 29.784C46.1378 29.784 45.9278 29.8213 45.7318 29.896C45.5451 29.9613 45.3585 30.064 45.1718 30.204C44.9851 30.344 44.7845 30.5213 44.5698 30.736V35.72C44.5698 35.9067 44.4625 36 44.2478 36H43.0018ZM54.731 28.44C55.291 28.44 55.7763 28.538 56.187 28.734C56.5976 28.9207 56.9336 29.168 57.195 29.476C57.4656 29.7747 57.671 30.092 57.811 30.428C57.867 30.596 57.8203 30.6847 57.671 30.694L56.439 30.848C56.3456 30.8667 56.2803 30.8247 56.243 30.722C56.1216 30.5167 55.9956 30.3347 55.865 30.176C55.7343 30.0173 55.585 29.8913 55.417 29.798C55.249 29.7047 55.0436 29.658 54.801 29.658C54.4276 29.658 54.0963 29.7607 53.807 29.966C53.527 30.162 53.3076 30.456 53.149 30.848C52.9996 31.24 52.925 31.7207 52.925 32.29C52.925 32.8687 53.0043 33.354 53.163 33.746C53.331 34.138 53.5596 34.4367 53.849 34.642C54.1383 34.838 54.4836 34.936 54.885 34.936C55.305 34.936 55.6503 34.8287 55.921 34.614C56.1916 34.39 56.4436 34.082 56.677 33.69C56.705 33.6527 56.733 33.6293 56.761 33.62C56.789 33.6107 56.8356 33.6153 56.901 33.634L57.783 33.872C57.8763 33.9 57.9043 33.9793 57.867 34.11C57.7736 34.3247 57.6383 34.5533 57.461 34.796C57.293 35.0387 57.083 35.2627 56.831 35.468C56.579 35.664 56.2756 35.8273 55.921 35.958C55.5756 36.0793 55.179 36.14 54.731 36.14C54.0216 36.14 53.3916 35.9813 52.841 35.664C52.2903 35.3373 51.8563 34.8893 51.539 34.32C51.231 33.7413 51.077 33.074 51.077 32.318C51.077 31.5527 51.2356 30.8807 51.553 30.302C51.8703 29.714 52.3043 29.2567 52.855 28.93C53.4056 28.6033 54.031 28.44 54.731 28.44ZM61.3649 35.692C61.3649 35.804 61.3416 35.8833 61.2949 35.93C61.2482 35.9767 61.1642 36 61.0429 36H59.8109C59.6242 36 59.5309 35.916 59.5309 35.748L59.5729 25.85C59.5729 25.6913 59.6429 25.612 59.7829 25.612H61.1689C61.2996 25.612 61.3649 25.6867 61.3649 25.836V35.692ZM65.3806 35.692C65.3806 35.804 65.3526 35.8833 65.2966 35.93C65.2499 35.9767 65.1659 36 65.0446 36H63.8266C63.7239 36 63.6539 35.9813 63.6166 35.944C63.5793 35.8973 63.5606 35.832 63.5606 35.748V28.818C63.5606 28.6593 63.6306 28.58 63.7706 28.58H65.1846C65.3153 28.58 65.3806 28.6547 65.3806 28.804V35.692ZM65.4086 27.208C65.4086 27.4227 65.2966 27.53 65.0726 27.53H63.7986C63.6959 27.53 63.6259 27.5067 63.5886 27.46C63.5513 27.4133 63.5326 27.3433 63.5326 27.25V25.878C63.5326 25.7007 63.6073 25.612 63.7566 25.612H65.1986C65.3386 25.612 65.4086 25.6913 65.4086 25.85V27.208ZM68.1506 38.31C67.8706 38.31 67.6606 38.296 67.5206 38.268C67.3806 38.2493 67.3106 38.184 67.3106 38.072V37.176C67.3106 37.12 67.3386 37.0687 67.3946 37.022C67.4506 36.9847 67.558 36.966 67.7166 36.966H68.6406C68.8273 36.966 68.9953 36.9147 69.1446 36.812C69.3033 36.7093 69.4293 36.5833 69.5226 36.434C69.6253 36.2847 69.6906 36.1307 69.7186 35.972C69.756 35.804 69.7466 35.6547 69.6906 35.524L67.0026 28.888C66.9746 28.804 66.9793 28.734 67.0166 28.678C67.054 28.6127 67.1193 28.58 67.2126 28.58H68.6686C68.734 28.58 68.79 28.5987 68.8366 28.636C68.8926 28.6733 68.93 28.7247 68.9486 28.79L70.6846 33.396C70.7126 33.48 70.75 33.522 70.7966 33.522C70.8433 33.522 70.8853 33.4707 70.9226 33.368L72.6446 28.776C72.6726 28.72 72.7053 28.6733 72.7426 28.636C72.7893 28.5987 72.8453 28.58 72.9106 28.58H73.9326C74.0073 28.58 74.0633 28.6127 74.1006 28.678C74.138 28.734 74.138 28.7947 74.1006 28.86L71.1606 36.224C70.9833 36.6627 70.7966 37.0173 70.6006 37.288C70.414 37.5587 70.204 37.7687 69.9706 37.918C69.7373 38.0673 69.4713 38.17 69.1726 38.226C68.8833 38.282 68.5426 38.31 68.1506 38.31ZM77.5546 35.692C77.5546 35.804 77.5266 35.8833 77.4706 35.93C77.4239 35.9767 77.3399 36 77.2186 36H76.0006C75.8979 36 75.8279 35.9813 75.7906 35.944C75.7532 35.8973 75.7346 35.832 75.7346 35.748V28.818C75.7346 28.6593 75.8046 28.58 75.9446 28.58H77.3586C77.4892 28.58 77.5546 28.6547 77.5546 28.804V35.692ZM77.5826 27.208C77.5826 27.4227 77.4706 27.53 77.2466 27.53H75.9726C75.8699 27.53 75.7999 27.5067 75.7626 27.46C75.7252 27.4133 75.7066 27.3433 75.7066 27.25V25.878C75.7066 25.7007 75.7812 25.612 75.9306 25.612H77.3726C77.5126 25.612 77.5826 25.6913 77.5826 25.85V27.208ZM79.9886 36C79.8206 36 79.7366 35.916 79.7366 35.748V28.818C79.7366 28.6593 79.8019 28.58 79.9326 28.58H81.3326C81.4539 28.58 81.5146 28.65 81.5146 28.79V29.518C81.5146 29.574 81.5286 29.6113 81.5566 29.63C81.5846 29.6393 81.6219 29.6207 81.6686 29.574C81.9393 29.3407 82.2006 29.14 82.4526 28.972C82.7046 28.804 82.9659 28.6733 83.2366 28.58C83.5073 28.4867 83.8013 28.44 84.1186 28.44C84.8093 28.44 85.3506 28.6407 85.7426 29.042C86.1439 29.434 86.3446 29.9567 86.3446 30.61V35.706C86.3446 35.902 86.2466 36 86.0506 36H84.7626C84.6786 36 84.6179 35.9813 84.5806 35.944C84.5433 35.9067 84.5246 35.8413 84.5246 35.748V30.932C84.5246 30.568 84.4266 30.288 84.2306 30.092C84.0346 29.8867 83.7406 29.784 83.3486 29.784C83.1246 29.784 82.9146 29.8213 82.7186 29.896C82.5319 29.9613 82.3453 30.064 82.1586 30.204C81.9719 30.344 81.7713 30.5213 81.5566 30.736V35.72C81.5566 35.9067 81.4493 36 81.2346 36H79.9886ZM96.3235 30.414C96.1462 30.1807 95.9129 29.9847 95.6235 29.826C95.3342 29.6673 94.9795 29.588 94.5595 29.588C94.1582 29.588 93.8222 29.6673 93.5515 29.826C93.2809 29.9847 93.1455 30.2087 93.1455 30.498C93.1455 30.638 93.2015 30.7733 93.3135 30.904C93.4255 31.0347 93.6729 31.1513 94.0555 31.254L95.7215 31.702C96.4495 31.8793 96.9675 32.1593 97.2755 32.542C97.5929 32.9153 97.7515 33.34 97.7515 33.816C97.7515 34.3013 97.6115 34.7167 97.3315 35.062C97.0609 35.4073 96.6782 35.6733 96.1835 35.86C95.6982 36.0467 95.1429 36.14 94.5175 36.14C93.7149 36.14 93.0289 35.9953 92.4595 35.706C91.8902 35.4073 91.4889 35.0387 91.2555 34.6C91.2275 34.544 91.2135 34.4927 91.2135 34.446C91.2135 34.39 91.2369 34.3433 91.2835 34.306L92.1095 33.886C92.1842 33.8393 92.2449 33.8207 92.2915 33.83C92.3382 33.8393 92.3755 33.8627 92.4035 33.9C92.5435 34.096 92.7022 34.2733 92.8795 34.432C93.0662 34.5907 93.2902 34.7167 93.5515 34.81C93.8222 34.9033 94.1489 34.9453 94.5315 34.936C94.8209 34.936 95.0822 34.8987 95.3155 34.824C95.5582 34.7493 95.7495 34.6467 95.8895 34.516C96.0295 34.376 96.0995 34.208 96.0995 34.012C96.0995 33.8253 96.0202 33.662 95.8615 33.522C95.7029 33.382 95.4182 33.2607 95.0075 33.158L93.5795 32.822C92.8702 32.654 92.3475 32.402 92.0115 32.066C91.6849 31.73 91.5215 31.31 91.5215 30.806C91.5215 30.3393 91.6429 29.9287 91.8855 29.574C92.1375 29.2193 92.4922 28.944 92.9495 28.748C93.4069 28.5427 93.9482 28.44 94.5735 28.44C95.2642 28.44 95.8615 28.566 96.3655 28.818C96.8695 29.07 97.2382 29.3827 97.4715 29.756C97.5089 29.8027 97.5322 29.854 97.5415 29.91C97.5602 29.966 97.5369 30.0127 97.4715 30.05L96.6035 30.484C96.5475 30.512 96.4962 30.5213 96.4495 30.512C96.4029 30.4933 96.3609 30.4607 96.3235 30.414ZM104.463 31.716C104.463 31.324 104.37 30.9787 104.183 30.68C104.006 30.3813 103.763 30.148 103.455 29.98C103.147 29.8027 102.802 29.714 102.419 29.714C102.046 29.714 101.701 29.7933 101.383 29.952C101.066 30.1107 100.767 30.3673 100.487 30.722C100.45 30.7593 100.417 30.7827 100.389 30.792C100.361 30.792 100.315 30.778 100.249 30.75L99.3953 30.372C99.274 30.316 99.26 30.232 99.3533 30.12C99.6427 29.7 99.946 29.3687 100.263 29.126C100.581 28.8833 100.931 28.7107 101.313 28.608C101.705 28.496 102.144 28.44 102.629 28.44C103.348 28.44 103.987 28.5987 104.547 28.916C105.107 29.2333 105.546 29.672 105.863 30.232C106.181 30.792 106.339 31.4453 106.339 32.192C106.339 32.9947 106.171 33.6947 105.835 34.292C105.509 34.88 105.065 35.3373 104.505 35.664C103.955 35.9813 103.339 36.14 102.657 36.14C101.967 36.14 101.355 35.986 100.823 35.678C100.291 35.37 99.8713 34.9267 99.5633 34.348C99.2647 33.7693 99.1153 33.074 99.1153 32.262C99.1153 32.1687 99.1247 32.094 99.1433 32.038C99.162 31.9727 99.2273 31.94 99.3393 31.94H104.309C104.365 31.94 104.403 31.9213 104.421 31.884C104.449 31.8373 104.463 31.7813 104.463 31.716ZM101.145 32.976C101.052 32.976 100.987 32.99 100.949 33.018C100.921 33.0367 100.907 33.088 100.907 33.172C100.907 33.4613 100.973 33.746 101.103 34.026C101.234 34.306 101.421 34.5393 101.663 34.726C101.915 34.9033 102.228 34.992 102.601 34.992C102.975 34.992 103.301 34.9033 103.581 34.726C103.861 34.5393 104.076 34.292 104.225 33.984C104.375 33.676 104.445 33.34 104.435 32.976H101.145ZM112.681 30.414C112.504 30.1807 112.27 29.9847 111.981 29.826C111.692 29.6673 111.337 29.588 110.917 29.588C110.516 29.588 110.18 29.6673 109.909 29.826C109.638 29.9847 109.503 30.2087 109.503 30.498C109.503 30.638 109.559 30.7733 109.671 30.904C109.783 31.0347 110.03 31.1513 110.413 31.254L112.079 31.702C112.807 31.8793 113.325 32.1593 113.633 32.542C113.95 32.9153 114.109 33.34 114.109 33.816C114.109 34.3013 113.969 34.7167 113.689 35.062C113.418 35.4073 113.036 35.6733 112.541 35.86C112.056 36.0467 111.5 36.14 110.875 36.14C110.072 36.14 109.386 35.9953 108.817 35.706C108.248 35.4073 107.846 35.0387 107.613 34.6C107.585 34.544 107.571 34.4927 107.571 34.446C107.571 34.39 107.594 34.3433 107.641 34.306L108.467 33.886C108.542 33.8393 108.602 33.8207 108.649 33.83C108.696 33.8393 108.733 33.8627 108.761 33.9C108.901 34.096 109.06 34.2733 109.237 34.432C109.424 34.5907 109.648 34.7167 109.909 34.81C110.18 34.9033 110.506 34.9453 110.889 34.936C111.178 34.936 111.44 34.8987 111.673 34.824C111.916 34.7493 112.107 34.6467 112.247 34.516C112.387 34.376 112.457 34.208 112.457 34.012C112.457 33.8253 112.378 33.662 112.219 33.522C112.06 33.382 111.776 33.2607 111.365 33.158L109.937 32.822C109.228 32.654 108.705 32.402 108.369 32.066C108.042 31.73 107.879 31.31 107.879 30.806C107.879 30.3393 108 29.9287 108.243 29.574C108.495 29.2193 108.85 28.944 109.307 28.748C109.764 28.5427 110.306 28.44 110.931 28.44C111.622 28.44 112.219 28.566 112.723 28.818C113.227 29.07 113.596 29.3827 113.829 29.756C113.866 29.8027 113.89 29.854 113.899 29.91C113.918 29.966 113.894 30.0127 113.829 30.05L112.961 30.484C112.905 30.512 112.854 30.5213 112.807 30.512C112.76 30.4933 112.718 30.4607 112.681 30.414ZM117.727 35.692C117.727 35.804 117.699 35.8833 117.643 35.93C117.596 35.9767 117.512 36 117.391 36H116.173C116.07 36 116 35.9813 115.963 35.944C115.926 35.8973 115.907 35.832 115.907 35.748V28.818C115.907 28.6593 115.977 28.58 116.117 28.58H117.531C117.662 28.58 117.727 28.6547 117.727 28.804V35.692ZM117.755 27.208C117.755 27.4227 117.643 27.53 117.419 27.53H116.145C116.042 27.53 115.972 27.5067 115.935 27.46C115.898 27.4133 115.879 27.3433 115.879 27.25V25.878C115.879 25.7007 115.954 25.612 116.103 25.612H117.545C117.685 25.612 117.755 25.6913 117.755 25.85V27.208Z" fill="white"/>
</svg>
