<svg width="24" height="24" viewBox="0 0 24 24" fill="none" xmlns="http://www.w3.org/2000/svg">
<path d="M22.9781 1.02206C22.8516 0.896124 22.6918 0.808934 22.5174 0.770737C22.343 0.732539 22.1613 0.744923 21.9937 0.806431L1.36875 8.30643C1.19088 8.3739 1.03774 8.49388 0.929674 8.65045C0.821609 8.80702 0.763733 8.99275 0.763733 9.18299C0.763733 9.37323 0.821609 9.55897 0.929674 9.71554C1.03774 9.8721 1.19088 9.99209 1.36875 10.0596L9.42188 13.2752L15.3656 7.31268L16.6875 8.63456L10.7156 14.6064L13.9406 22.6596C14.0101 22.834 14.1303 22.9836 14.2858 23.0889C14.4412 23.1942 14.6247 23.2504 14.8125 23.2502C15.002 23.2463 15.1858 23.1851 15.3398 23.0746C15.4937 22.9642 15.6106 22.8097 15.675 22.6314L23.175 2.00643C23.2389 1.84057 23.2543 1.65996 23.2194 1.48567C23.1846 1.31138 23.1009 1.1506 22.9781 1.02206Z" fill="white"/>
</svg>
