<svg width="23" height="16" viewBox="0 0 23 16" fill="none" xmlns="http://www.w3.org/2000/svg">
<path d="M9.30914 15.6892C5.09786 15.6117 3.6595 15.5419 2.7754 15.3598C2.17724 15.2387 1.65745 14.97 1.27632 14.5803C0.981755 14.2853 0.747499 13.8352 0.565755 13.2108C0.409858 12.6906 0.34914 12.2578 0.262576 11.2006C0.130063 8.81453 0.0984733 6.86376 0.262576 4.68407C0.397961 3.48038 0.463602 2.05145 1.36288 1.21781C1.7875 0.827659 2.28145 0.576582 2.83611 0.472787C3.70258 0.308274 7.39406 0.178223 11.2156 0.178223C15.0285 0.178223 18.7282 0.308274 19.5955 0.472787C20.2884 0.602838 20.9383 0.992582 21.3198 1.49515C22.1403 2.78581 22.1547 4.39074 22.238 5.64612C22.2724 6.24427 22.2724 9.64079 22.238 10.2389C22.1083 12.2229 22.0041 12.9249 21.7096 13.6527C21.5274 14.1122 21.3719 14.3546 21.1028 14.6234C20.6807 15.0369 20.1426 15.3119 19.5602 15.4119C15.9159 15.6859 12.8213 15.7454 9.30914 15.6892ZM14.8899 7.71709C12.8624 6.63361 10.921 5.62889 8.93663 4.58889V10.8108C11.0248 9.67566 13.2263 8.63566 14.8985 7.70848L14.8899 7.71709Z" fill="white"/>
</svg>
