<svg width="22" height="22" viewBox="0 0 22 22" fill="none" xmlns="http://www.w3.org/2000/svg">
<path d="M11 0.439941C5.1678 0.439941 0.440002 5.16774 0.440002 10.9999C0.440002 16.8321 5.1678 21.5599 11 21.5599C16.8322 21.5599 21.56 16.8321 21.56 10.9999C21.56 5.16774 16.8322 0.439941 11 0.439941ZM8.415 15.3768H6.2766V8.49524H8.415V15.3768ZM7.3326 7.65044C6.6572 7.65044 6.2205 7.17194 6.2205 6.58014C6.2205 5.97624 6.6704 5.51204 7.3601 5.51204C8.0498 5.51204 8.4722 5.97624 8.4854 6.58014C8.4854 7.17194 8.0498 7.65044 7.3326 7.65044ZM16.225 15.3768H14.0866V11.5631C14.0866 10.6754 13.7764 10.0726 13.0031 10.0726C12.4124 10.0726 12.0615 10.4807 11.9064 10.8734C11.8492 11.0131 11.8349 11.2111 11.8349 11.408V15.3757H9.6954V10.6897C9.6954 9.83064 9.6679 9.11234 9.6393 8.49414H11.4972L11.5951 9.45004H11.638C11.9196 9.00124 12.6093 8.33904 13.7632 8.33904C15.1701 8.33904 16.225 9.28174 16.225 11.3079V15.3768Z" fill="white"/>
</svg>
