<svg width="38" height="38" viewBox="0 0 38 38" fill="none" xmlns="http://www.w3.org/2000/svg">
<path d="M15.0833 27.2501V27.7501L15.4833 27.4501L26.4833 19.2001L26.75 19.0001L26.4833 18.8001L15.4833 10.5501L15.0833 10.2501V10.7501V27.2501ZM8.95344 3.96434C11.9272 1.97732 15.4235 0.916748 19 0.916748C21.3747 0.916748 23.7262 1.38449 25.9202 2.29326C28.1142 3.20203 30.1077 4.53404 31.7868 6.21323C33.466 7.89243 34.798 9.88592 35.7068 12.0799C36.6156 14.2739 37.0833 16.6253 37.0833 19.0001C37.0833 22.5766 36.0228 26.0729 34.0357 29.0466C32.0487 32.0204 29.2245 34.3382 25.9202 35.7069C22.6159 37.0756 18.9799 37.4337 15.4721 36.7359C11.9643 36.0382 8.74215 34.3159 6.21315 31.7869C3.68415 29.2579 1.96188 26.0358 1.26413 22.528C0.566383 19.0201 0.924494 15.3842 2.29318 12.0799C3.66186 8.77559 5.97965 5.95136 8.95344 3.96434Z" fill="#00324E" stroke="white" stroke-width="0.5"/>
</svg>
