<svg width="7" height="16" viewBox="0 0 7 16" fill="none" xmlns="http://www.w3.org/2000/svg">
<path d="M1.79688 13.384H2.66406V12.4911H3.53125V11.5982H4.39844V10.7054H5.26562V9.81253H6.13281V8.91967H7V7.13396H6.13281V6.2411H5.26562V5.34824H4.39844V4.45539H3.53125V3.56253H2.66406V2.66967L1.79688 2.64286V3.56253H2.66406V4.45539H3.53125V5.34824H4.39844V6.2411H5.26562V7.13396H6.13281V8.91967H5.26562V9.81253H4.39844V10.7054H3.53125V11.5982H2.66406V12.4911H1.79688V13.384Z" fill="#00324E"/>
<path d="M0.929688 1.75V0.857147H0.0625V1.75H0.929688Z" fill="#00324E"/>
<path d="M1.79688 2.64286V1.75H0.929688V2.64286H1.79688Z" fill="#00324E"/>
<path d="M1.79688 13.384V13.3571H0.929688V14.25H1.79688V13.384Z" fill="#00324E"/>
<path d="M0.0625 15.1429H0.929688V14.25H0.0625V15.1429Z" fill="#00324E"/>
</svg>
