<svg width="20" height="20" viewBox="0 0 20 20" fill="none" xmlns="http://www.w3.org/2000/svg">
<path d="M18.125 0.468822H1.875C1.5063 0.46507 1.15117 0.607735 0.887529 0.865514C0.623892 1.12329 0.473283 1.47513 0.46875 1.84382V18.1594C0.474103 18.5276 0.625072 18.8786 0.88862 19.1357C1.15217 19.3928 1.50683 19.5351 1.875 19.5313H18.125C18.4937 19.5342 18.8486 19.3911 19.1121 19.1332C19.3756 18.8752 19.5263 18.5235 19.5312 18.1548V1.83913C19.5247 1.47152 19.3733 1.12136 19.1099 0.864769C18.8466 0.608173 18.4927 0.465881 18.125 0.468822Z" fill="#828282"/>
<path d="M3.29067 7.61401H6.12036V16.7187H3.29067V7.61401ZM4.7063 3.08276C5.03085 3.08276 5.34811 3.17902 5.61794 3.35937C5.88778 3.53971 6.09806 3.79603 6.22219 4.09591C6.34632 4.39579 6.37872 4.72574 6.31528 5.04403C6.25185 5.36233 6.09544 5.65466 5.86584 5.88404C5.63624 6.11342 5.34376 6.26955 5.02541 6.33268C4.70706 6.39581 4.37713 6.36309 4.07738 6.23868C3.77762 6.11426 3.5215 5.90374 3.34141 5.63373C3.16132 5.36373 3.06537 5.04638 3.06567 4.72183C3.06609 4.28698 3.23912 3.87008 3.54675 3.56274C3.85439 3.2554 4.27145 3.08276 4.7063 3.08276Z" fill="white"/>
<path d="M7.89539 7.61413H10.6079V8.86413H10.6454C11.0235 8.1485 11.9454 7.39381 13.3219 7.39381C16.1876 7.38756 16.7188 9.2735 16.7188 11.7188V16.7188H13.8891V12.2891C13.8891 11.2344 13.8704 9.87663 12.4188 9.87663C10.9673 9.87663 10.7204 11.0266 10.7204 12.2204V16.7188H7.89539V7.61413Z" fill="white"/>
</svg>
