<svg width="20" height="20" viewBox="0 0 20 20" fill="none" xmlns="http://www.w3.org/2000/svg">
<path d="M17.1875 0.9375H2.8125C1.77697 0.9375 0.9375 1.77697 0.9375 2.8125V17.1875C0.9375 18.223 1.77697 19.0625 2.8125 19.0625H17.1875C18.223 19.0625 19.0625 18.223 19.0625 17.1875V2.8125C19.0625 1.77697 18.223 0.9375 17.1875 0.9375Z" fill="#828282"/>
<path fill-rule="evenodd" clip-rule="evenodd" d="M13.0331 13.125H7.27943C6.54137 13.125 5.9375 12.5081 5.9375 11.754V8.55847C5.9375 7.80444 6.54137 7.1875 7.27943 7.1875H13.0331C13.7711 7.1875 14.375 7.80444 14.375 8.55847V11.754C14.375 12.5081 13.7711 13.125 13.0331 13.125V13.125ZM9.39006 9.00799V11.5438L11.6875 10.2346L9.39006 9.00799Z" fill="white"/>
</svg>
