<svg width="20" height="20" viewBox="0 0 20 20" fill="none" xmlns="http://www.w3.org/2000/svg">
<path d="M19.9941 0H0.00585938C0.00262333 0 0 0.00262333 0 0.00585938V19.9941C0 19.9974 0.00262333 20 0.00585938 20H19.9941C19.9974 20 20 19.9974 20 19.9941V0.00585938C20 0.00262333 19.9974 0 19.9941 0Z" fill="#828282"/>
<path d="M17.0703 5.93753C16.6072 6.24471 16.0635 6.40782 15.5078 6.40628C16.1019 6.05629 16.5468 5.50023 16.7578 4.84378C16.2653 5.26011 15.6447 5.49456 15 5.50784C14.5749 5.07246 14.0201 4.78669 13.4188 4.69341C12.8175 4.60012 12.2022 4.70436 11.6652 4.99048C11.1281 5.2766 10.6984 5.72916 10.4404 6.28025C10.1824 6.83134 10.1101 7.45124 10.2344 8.0469C9.14037 7.98914 8.07074 7.70194 7.09493 7.20395C6.11913 6.70595 5.25897 6.0083 4.57031 5.15628C4.23332 5.76606 4.13466 6.47921 4.29342 7.15758C4.45219 7.83595 4.85709 8.43125 5.42969 8.82815C4.99755 8.83426 4.56981 8.74069 4.17969 8.55472C4.19019 9.18395 4.41143 9.79147 4.80801 10.2801C5.20458 10.7688 5.75358 11.1103 6.36719 11.25C5.95873 11.3567 5.53151 11.37 5.11719 11.2891C5.29592 11.8465 5.64413 12.3343 6.11328 12.6844C6.58243 13.0345 7.14913 13.2295 7.73438 13.2422C6.49833 13.992 5.07848 14.3842 3.63281 14.375C4.84357 15.1655 6.24993 15.6044 7.69535 15.6429C9.14077 15.6815 10.5685 15.3181 11.8197 14.5934C13.0709 13.8686 14.0963 12.8108 14.782 11.5377C15.4676 10.2647 15.7865 8.82637 15.7031 7.38284C16.2186 6.9613 16.678 6.47559 17.0703 5.93753Z" fill="white"/>
</svg>
