<svg width="20" height="21" viewBox="0 0 20 21" fill="none" xmlns="http://www.w3.org/2000/svg">
<path d="M10 8.04722C9.52907 8.04739 9.06877 8.1872 8.67729 8.44896C8.28581 8.71073 7.98074 9.08269 7.80065 9.51782C7.62055 9.95295 7.57353 10.4317 7.66551 10.8936C7.75749 11.3554 7.98435 11.7796 8.31741 12.1126C8.65047 12.4455 9.07477 12.6722 9.53666 12.764C9.99856 12.8558 10.4773 12.8086 10.9124 12.6284C11.3474 12.4481 11.7193 12.1429 11.9809 11.7513C12.2425 11.3598 12.3821 10.8994 12.3821 10.4285C12.3817 9.79691 12.1305 9.19137 11.6839 8.74488C11.2372 8.29838 10.6316 8.04745 10 8.04722V8.04722ZM15.5674 6.21686C15.4462 5.90965 15.2631 5.63062 15.0296 5.39709C14.7961 5.16355 14.517 4.9805 14.2098 4.85927C13.2723 4.48918 11.0402 4.57222 10 4.57222C8.95982 4.57222 6.72991 4.48606 5.78973 4.85927C5.48252 4.9805 5.20349 5.16355 4.96996 5.39709C4.73642 5.63062 4.55337 5.90965 4.43214 6.21686C4.0625 7.15436 4.14509 9.38874 4.14509 10.428C4.14509 11.4673 4.0625 13.699 4.43393 14.6396C4.55515 14.9468 4.73821 15.2259 4.97174 15.4594C5.20528 15.6929 5.4843 15.876 5.79152 15.9972C6.72902 16.3673 8.96116 16.2843 10.0018 16.2843C11.0424 16.2843 13.2714 16.3704 14.2116 15.9972C14.5188 15.876 14.7978 15.6929 15.0314 15.4594C15.2649 15.2259 15.448 14.9468 15.5692 14.6396C15.942 13.7021 15.8563 11.4678 15.8563 10.4285C15.8563 9.38918 15.942 7.15793 15.5692 6.21731L15.5674 6.21686ZM10 14.0892C9.27598 14.0892 8.56822 13.8745 7.96622 13.4722C7.36421 13.07 6.89501 12.4983 6.61794 11.8294C6.34087 11.1605 6.26838 10.4244 6.40963 9.7143C6.55087 9.00419 6.89952 8.35191 7.41148 7.83995C7.92344 7.32799 8.57572 6.97934 9.28583 6.83809C9.99594 6.69684 10.732 6.76934 11.4009 7.04641C12.0698 7.32348 12.6415 7.79268 13.0438 8.39468C13.446 8.99668 13.6607 9.70445 13.6607 10.4285C13.6613 10.9094 13.567 11.3857 13.3833 11.8301C13.1995 12.2745 12.9299 12.6782 12.5898 13.0183C12.2498 13.3583 11.846 13.628 11.4016 13.8117C10.9572 13.9955 10.4809 14.0898 10 14.0892V14.0892ZM13.8116 7.46865C13.6426 7.46873 13.4773 7.4187 13.3368 7.32486C13.1962 7.23102 13.0866 7.09761 13.0219 6.94148C12.9571 6.78535 12.9401 6.61354 12.9731 6.44776C13.006 6.28198 13.0873 6.12969 13.2068 6.01014C13.3263 5.8906 13.4785 5.80917 13.6443 5.77617C13.8101 5.74316 13.9819 5.76006 14.138 5.82472C14.2942 5.88938 14.4277 5.99889 14.5216 6.13942C14.6155 6.27995 14.6656 6.44517 14.6656 6.61418C14.6661 6.72642 14.6444 6.83765 14.6018 6.94148C14.5592 7.04532 14.4965 7.13972 14.4173 7.21927C14.3381 7.29882 14.244 7.36196 14.1404 7.40506C14.0368 7.44816 13.9256 7.47037 13.8134 7.47043L13.8116 7.46865ZM17.8571 0.428467H2.14286C1.57454 0.428467 1.02949 0.654232 0.627628 1.0561C0.225765 1.45796 0 2.003 0 2.57132L0 18.2856C0 18.8539 0.225765 19.399 0.627628 19.8008C1.02949 20.2027 1.57454 20.4285 2.14286 20.4285H17.8571C18.4255 20.4285 18.9705 20.2027 19.3724 19.8008C19.7742 19.399 20 18.8539 20 18.2856V2.57132C20 2.003 19.7742 1.45796 19.3724 1.0561C18.9705 0.654232 18.4255 0.428467 17.8571 0.428467V0.428467ZM17.0929 13.3749C17.0353 14.5191 16.7741 15.5329 15.9388 16.366C15.1036 17.199 14.0906 17.4655 12.9478 17.52C11.7688 17.5865 8.23393 17.5865 7.05491 17.52C5.91071 17.4624 4.90045 17.2008 4.06384 16.366C3.22723 15.5311 2.96429 14.5169 2.90982 13.3749C2.8433 12.1954 2.8433 8.66016 2.90982 7.48204C2.96741 6.33784 3.22545 5.324 4.06384 4.49097C4.90223 3.65793 5.91518 3.39454 7.05491 3.34007C8.23393 3.27356 11.7688 3.27356 12.9478 3.34007C14.092 3.39766 15.1054 3.65927 15.9388 4.49409C16.7723 5.32891 17.0384 6.3432 17.0929 7.4874C17.1594 8.6624 17.1594 12.1945 17.0929 13.3749Z" fill="#828282"/>
</svg>
