<svg width="30" height="30" viewBox="0 0 30 30" fill="none" xmlns="http://www.w3.org/2000/svg">
<path d="M28.9114 14.4901C27.8087 11.6379 25.8945 9.17129 23.4052 7.39517C20.916 5.61905 17.9609 4.61125 14.9051 4.49634C11.8494 4.61125 8.89423 5.61905 6.405 7.39517C3.91576 9.17129 2.00152 11.6379 0.898869 14.4901C0.824401 14.6961 0.824401 14.9216 0.898869 15.1276C2.00152 17.9798 3.91576 20.4464 6.405 22.2225C8.89423 23.9986 11.8494 25.0064 14.9051 25.1213C17.9609 25.0064 20.916 23.9986 23.4052 22.2225C25.8945 20.4464 27.8087 17.9798 28.9114 15.1276C28.9858 14.9216 28.9858 14.6961 28.9114 14.4901ZM14.9051 23.2463C9.93637 23.2463 4.68637 19.562 2.78324 14.8088C4.68637 10.0557 9.93637 6.37134 14.9051 6.37134C19.8739 6.37134 25.1239 10.0557 27.027 14.8088C25.1239 19.562 19.8739 23.2463 14.9051 23.2463Z" fill="#828282"/>
<path d="M15 9.375C13.8875 9.375 12.7999 9.7049 11.8749 10.323C10.9499 10.9411 10.2289 11.8196 9.80318 12.8474C9.37744 13.8752 9.26604 15.0062 9.48309 16.0974C9.70013 17.1885 10.2359 18.1908 11.0225 18.9775C11.8092 19.7641 12.8115 20.2999 13.9026 20.5169C14.9938 20.734 16.1248 20.6226 17.1526 20.1968C18.1804 19.7711 19.0589 19.0501 19.677 18.1251C20.2951 17.2001 20.625 16.1125 20.625 15C20.625 13.5082 20.0324 12.0774 18.9775 11.0225C17.9226 9.96763 16.4918 9.375 15 9.375ZM15 18.75C14.2583 18.75 13.5333 18.5301 12.9166 18.118C12.2999 17.706 11.8193 17.1203 11.5355 16.4351C11.2516 15.7498 11.1774 14.9958 11.3221 14.2684C11.4668 13.541 11.8239 12.8728 12.3484 12.3483C12.8728 11.8239 13.541 11.4667 14.2684 11.3221C14.9958 11.1774 15.7498 11.2516 16.4351 11.5355C17.1203 11.8193 17.706 12.2999 18.118 12.9166C18.5301 13.5333 18.75 14.2583 18.75 15C18.75 15.9946 18.3549 16.9484 17.6517 17.6517C16.9484 18.3549 15.9946 18.75 15 18.75Z" fill="#828282"/>
</svg>
